<svg xmlns="http://www.w3.org/2000/svg" viewBox="0 0 87.4 24.49"><defs><style>.cls-1{fill:#d9de3e;}.cls-2{font-size:9.22px;fill:#222221;font-family:Exo-ExtraBold, Exo;font-weight:800;letter-spacing:-0.01em;}.cls-3{letter-spacing:-0.02em;}.cls-4{fill:#fff;}</style></defs><g id="Capa_2" data-name="Capa 2"><g id="Capa_1-2" data-name="Capa 1"><path class="cls-1" d="M78.54,19.8l8.3-7.17a1.56,1.56,0,0,0,.56-1.2l-.14-9.78A1.75,1.75,0,0,0,85.43,0H1.86A1.74,1.74,0,0,0,0,1.65C0,8.91,0,6,0,18.6a1.75,1.75,0,0,0,1.82,1.66H77.28A1.9,1.9,0,0,0,78.54,19.8Z"/><text class="cls-2" transform="translate(11.55 14.11) scale(0.98 1)">CLIC <tspan class="cls-3" x="20.45" y="0">A</tspan><tspan x="26.64" y="0">QUÍ</tspan></text><path class="cls-4" d="M63.48,16.7l-.72-.08a1.74,1.74,0,0,0-1.7.94,1.41,1.41,0,0,0,.09,1.69,3.15,3.15,0,0,0,1.09,1c1.32.65,2.66,1.26,4,1.79a3.58,3.58,0,0,1,2.21,1.91c.29.68.5.69,1.13.33L75,21.15a.81.81,0,0,0,.44-.9c-.14-1.26-.25-2.52-.38-3.78a1.37,1.37,0,0,0-.16-.52c-.63-1.09-1.28-2.18-1.91-3.28a1.67,1.67,0,0,0-1.35-.82,2.39,2.39,0,0,0-1.52.37c-.18.11-.45.27-.57.2a1.44,1.44,0,0,0-1.54.24,1.34,1.34,0,0,1-.54.12,7.28,7.28,0,0,0-1,.08,3.34,3.34,0,0,0-.78.39l-.27-.44c-.48-.82-.94-1.65-1.43-2.46a1.82,1.82,0,0,0-2.56-.69,1.64,1.64,0,0,0-.59,2.44c.34.64.73,1.27,1.09,1.9C62.43,14.88,62.94,15.75,63.48,16.7Zm1.83-6.4h3.82V9.42H65.31Zm-3-3.91V2.6h-.89V6.39ZM54.57,10.3h3.81V9.42H54.57Zm9.8-2.38,2.77-2.75-.56-.6L63.79,7.35Zm-7.71,7.73,2.76-2.75-.55-.61-2.8,2.79Zm2.48-7.94.58-.53L57,4.42,56.37,5Z"/><path d="M63.48,16.7c-.54-.95-1-1.82-1.56-2.7-.36-.63-.75-1.26-1.09-1.9a1.64,1.64,0,0,1,.59-2.44,1.82,1.82,0,0,1,2.56.69c.49.81,1,1.64,1.43,2.46l.27.44a3.34,3.34,0,0,1,.78-.39,7.28,7.28,0,0,1,1-.08,1.34,1.34,0,0,0,.54-.12,1.44,1.44,0,0,1,1.54-.24c.12.07.39-.09.57-.2a2.39,2.39,0,0,1,1.52-.37,1.67,1.67,0,0,1,1.35.82c.63,1.1,1.28,2.19,1.91,3.28a1.37,1.37,0,0,1,.16.52c.13,1.26.24,2.52.38,3.78a.81.81,0,0,1-.44.9l-5.43,3.1c-.63.36-.84.35-1.13-.33A3.58,3.58,0,0,0,66.26,22c-1.36-.53-2.7-1.14-4-1.79a3.15,3.15,0,0,1-1.09-1,1.41,1.41,0,0,1-.09-1.69,1.74,1.74,0,0,1,1.7-.94Zm5.82,6.64c1.67-1,3.35-1.92,5-2.9a.56.56,0,0,0,.17-.45c-.07-.87-.15-1.73-.25-2.59A3.14,3.14,0,0,0,74,16.29c-.54-1-1.13-2-1.72-3a1,1,0,0,0-1.45-.37,6.11,6.11,0,0,1-.83.45.87.87,0,0,1-.69,0,.61.61,0,0,0-.73,0,3.59,3.59,0,0,1-.73.43c-.16.06-.45.09-.54,0-.27-.29-.48-.17-.73,0s-.41.23-.61.35c-.54.29-.7.26-1-.27-.6-1-1.18-2-1.77-3a.9.9,0,0,0-1.33-.43c-.47.29-.52.62-.16,1.24,1,1.79,2.07,3.57,3.09,5.37.1.18.16.56,0,.66a.91.91,0,0,1-.7.13,12.18,12.18,0,0,0-1.41-.29,1.15,1.15,0,0,0-.81.43.83.83,0,0,0,.06.76,1.79,1.79,0,0,0,.74.62c1.3.61,2.6,1.2,3.93,1.74a3.84,3.84,0,0,1,2.53,2.12Z"/><path d="M65.31,10.3V9.42h3.82v.88Z"/><path d="M62.31,6.39h-.89V2.6h.89Z"/><path d="M54.57,10.3V9.42h3.81v.88Z"/><path d="M64.37,7.92l-.58-.57,2.79-2.78.56.6Z"/><path d="M56.66,15.65l-.59-.57,2.8-2.79.55.61Z"/><path d="M59.14,7.71,56.37,5,57,4.42l2.73,2.76Z"/><path class="cls-4" d="M69.3,23.34l-.11-.07a3.84,3.84,0,0,0-2.53-2.12C65.33,20.61,64,20,62.73,19.41a1.79,1.79,0,0,1-.74-.62.83.83,0,0,1-.06-.76,1.15,1.15,0,0,1,.81-.43,12.18,12.18,0,0,1,1.41.29.91.91,0,0,0,.7-.13c.11-.1.05-.48,0-.66-1-1.8-2.06-3.58-3.09-5.37-.36-.62-.31-1,.16-1.24a.9.9,0,0,1,1.33.43c.59,1,1.17,2,1.77,3,.31.53.47.56,1,.27.2-.12.41-.22.61-.35s.46-.28.73,0c.09.09.38.06.54,0a3.59,3.59,0,0,0,.73-.43.61.61,0,0,1,.73,0,.87.87,0,0,0,.69,0,6.11,6.11,0,0,0,.83-.45,1,1,0,0,1,1.45.37c.59,1,1.18,2,1.72,3a3.14,3.14,0,0,1,.22,1.11c.1.86.18,1.72.25,2.59a.56.56,0,0,1-.17.45C72.65,21.42,71,22.38,69.3,23.34Z"/></g></g></svg>