<svg xmlns="http://www.w3.org/2000/svg" viewBox="0 0 23.55 7.26"><defs><style>.cls-1{fill:#dcdb22;}.cls-2,.cls-3,.cls-4{fill:#222221;}.cls-3{font-size:3.95px;}.cls-3,.cls-4{font-family:Exo-ExtraBold, Exo;font-weight:800;}.cls-4{font-size:6.39px;}</style></defs><g id="Capa_2" data-name="Capa 2"><g id="Capa_1-2" data-name="Capa 1"><rect class="cls-1" y="0.26" width="23.55" height="6.26" rx="0.88"/><path class="cls-2" d="M19.35,4.44l-.08-.08L17.22,2.31a.41.41,0,0,1-.1-.13.25.25,0,0,1,.1-.32.26.26,0,0,1,.33,0l.72.71L19.7,4.05l0,0v-2a.27.27,0,0,1,.47-.2.36.36,0,0,1,.06.2V4.68A.27.27,0,0,1,20,5H17.37a.27.27,0,0,1-.28-.27.27.27,0,0,1,.27-.26h2Z"/><text class="cls-3" transform="translate(4.9 4.81)"><tspan xml:space="preserve"> INFO</tspan></text><text class="cls-4" transform="translate(1.51 5.53)">+</text></g></g></svg>