<svg xmlns="http://www.w3.org/2000/svg" xmlns:xlink="http://www.w3.org/1999/xlink" viewBox="0 0 65.54 54.44"><defs><style>.cls-1,.cls-3,.cls-4,.cls-5,.cls-6,.cls-7{fill:none;}.cls-2{fill:#e4e4e4;fill-rule:evenodd;}.cls-3,.cls-4,.cls-5,.cls-6,.cls-7{stroke:#cacaca;stroke-miterlimit:10;stroke-width:0.07px;}.cls-4{stroke-dasharray:0.1 0.1;}.cls-5{stroke-dasharray:0.1 0.1;}.cls-6{stroke-dasharray:0.1 0.1;}.cls-7{stroke-dasharray:0.1 0.1;}.cls-8{clip-path:url(#clip-path);}.cls-9{fill:#9dc44d;}.cls-10{fill:#fff;}</style><clipPath id="clip-path"><rect class="cls-1" x="28.69" y="16.72" width="30.02" height="30.02"/></clipPath></defs><g id="Capa_2" data-name="Capa 2"><g id="Capa_1-2" data-name="Capa 1"><path class="cls-2" d="M19.64,8.62V54.44H57.69l7.85-7.84v-38ZM54,12.74H52.3V11.07H54Zm3.08,0H55.39V11.07h1.67Zm3.09,0H58.48V11.07h1.67Zm3.09,0H61.56V11.07h1.68Z"/><polygon class="cls-2" points="23.73 14.15 23.73 51.44 54.7 51.44 61.09 45.07 61.09 14.15 23.73 14.15"/><polyline class="cls-3" points="23.78 14.15 23.73 14.15 23.73 14.2"/><line class="cls-4" x1="23.73" y1="14.3" x2="23.73" y2="51.34"/><polyline class="cls-3" points="23.73 51.39 23.73 51.44 23.78 51.44"/><polyline class="cls-5" points="23.88 51.44 54.7 51.44 61.02 45.14"/><polyline class="cls-3" points="61.05 45.1 61.09 45.07 61.09 45.02"/><line class="cls-6" x1="61.09" y1="44.92" x2="61.09" y2="14.25"/><polyline class="cls-3" points="61.09 14.2 61.09 14.15 61.04 14.15"/><line class="cls-7" x1="60.94" y1="14.15" x2="23.83" y2="14.15"/><path class="cls-2" d="M16.55,52.77l-2.69,1.67h-6V52.61l8.65-5.35Z"/><path class="cls-2" d="M16.55,42.69,7.9,48V42.53l8.65-5.35Z"/><path class="cls-2" d="M16.55,32.61,7.9,38V32.45l8.65-5.35Z"/><path class="cls-2" d="M16.55,22.53,7.9,27.88V22.37L16.55,17Z"/><path class="cls-2" d="M16.55,12.45,7.9,17.81V12.3l6-3.68h2.69Z"/><path class="cls-2" d="M0,10.91H3.37V3.06h7.46V0H0Z"/><g class="cls-8"><path d="M32.05,35.76c-.27,0-.31-.18-.31-.28a1.61,1.61,0,0,0,0-.31.35.35,0,0,1,.32-.35l.39,0,.73-.07a8,8,0,0,0,1-.33l.3-.11.51-.19a1.19,1.19,0,0,0,.37-.4,2.67,2.67,0,0,0,.08-.59l0-.33c0-.29,0-1.19,0-2s-.05-1.43-.07-1.52-.1-.33-.51-.48l-.62-.23L34,28.42c-.21-.07-.26-.19-.25-.46v-.18c0-.32,0-.76.06-1a1,1,0,0,1,.82-.79,11.82,11.82,0,0,1,1.3-.1h.17c.24,0,.63,0,1,0a2,2,0,0,1,.8.22,1,1,0,0,1,.42.68,7.66,7.66,0,0,1,0,1.4.5.5,0,0,1-.34.25c-.48.17-1,.37-1.09.42s-.2.14-.21,1.1v.31c0,.35,0,.74,0,1.1,0,.53,0,1,.05,1.31V33a2,2,0,0,0,.1.72l0,.07a.72.72,0,0,0,.5.4l.42.16c.36.13.76.28.92.32a6.49,6.49,0,0,0,1.15.16c.14,0,.52,0,.54.33,0,.11,0,.2,0,.27v.09a.31.31,0,0,1-.06.21.27.27,0,0,1-.21.08c-.08,0-8,0-8.17,0"/><path d="M47.26,35.76c-.27,0-.31-.18-.3-.28s0-.23,0-.31a.35.35,0,0,1,.32-.35l.39,0,.73-.07a8,8,0,0,0,1-.33l.3-.11.51-.19a1.19,1.19,0,0,0,.37-.4,2.67,2.67,0,0,0,.08-.59l0-.33c0-.29,0-1.19,0-2s-.05-1.43-.07-1.52-.1-.33-.51-.48l-.61-.23-.23-.09C49,28.35,49,28.23,49,28v-.18c0-.32,0-.76.06-1a1,1,0,0,1,.82-.79,12,12,0,0,1,1.3-.1h.17c.24,0,.63,0,1,0a2,2,0,0,1,.8.22,1,1,0,0,1,.42.68,7.66,7.66,0,0,1,0,1.4.5.5,0,0,1-.34.25c-.48.17-1,.37-1.09.42S52,29,52,30v.31c0,.35,0,.74,0,1.1,0,.53,0,1,.05,1.31V33a2.31,2.31,0,0,0,.1.72l0,.07a.72.72,0,0,0,.5.4l.42.16c.36.13.76.28.92.32a6.49,6.49,0,0,0,1.15.16c.15,0,.52,0,.55.33,0,.11,0,.2,0,.27v.09a.26.26,0,0,1-.06.21.26.26,0,0,1-.21.08c-.07,0-8,0-8.17,0"/><polygon class="cls-9" points="47.23 29.14 47.21 28.18 40.18 28.18 40.18 29.22 38.45 27.36 40.18 25.5 40.18 26.35 47.23 26.35 47.21 25.42 48.95 27.28 47.23 29.14"/><rect x="30.35" y="37.05" width="26.7" height="0.97"/><path class="cls-10" d="M43.7,16.72a15,15,0,1,0,15,15,15,15,0,0,0-15-15m0,28.35A13.34,13.34,0,1,1,57.05,31.73,13.36,13.36,0,0,1,43.7,45.07"/></g></g></g></svg>