<svg xmlns="http://www.w3.org/2000/svg" viewBox="0 0 18.6 18.6"><defs><style>.cls-1{fill:#c5c5c5;}</style></defs><g id="Capa_2" data-name="Capa 2"><g id="Capa_1-2" data-name="Capa 1"><path class="cls-1" d="M18.34,4.88l-1.2-.17a.31.31,0,0,1-.26-.23A.29.29,0,0,1,17,4.16l1-.73a.32.32,0,0,0,.12-.2A.31.31,0,0,0,18,3L16.92,1.52a.28.28,0,0,0-.21-.12.28.28,0,0,0-.22.05l-1,.73a.3.3,0,0,1-.35,0A.31.31,0,0,1,15,1.89L15.2.69a.32.32,0,0,0-.27-.35L13.1.08a.32.32,0,0,0-.23.06.32.32,0,0,0-.12.2l-.17,1.2a.31.31,0,0,1-.23.26A.29.29,0,0,1,12,1.68l-.73-1a.32.32,0,0,0-.2-.12.31.31,0,0,0-.23.06l-.93.7a5.31,5.31,0,0,0-1.26,0A5.86,5.86,0,0,0,3.5,6.61c0,.08,0,.17,0,.26H3.4a.31.31,0,0,0-.31.24l-.21,1L2,7.54a.32.32,0,0,0-.4,0L.71,8.5a.32.32,0,0,0,0,.4l.59.85L.25,10a.31.31,0,0,0-.25.3V11.5a.3.3,0,0,0,.25.3l1,.21-.59.86a.3.3,0,0,0,0,.39l.92.93a.32.32,0,0,0,.4,0l.85-.59.21,1a.31.31,0,0,0,.31.24H4.63a.3.3,0,0,0,.3-.24l.22-1,.85.58a.3.3,0,0,0,.39,0l.48-.48v.88a1.22,1.22,0,0,0,.62,1.06v1.71A1.23,1.23,0,0,0,8.73,18.6H10a1.23,1.23,0,0,0,1.23-1.24V15.65a1.22,1.22,0,0,0,.62-1.06V13.36a1.51,1.51,0,0,1,.72-1.26,5.48,5.48,0,0,0,.72-.55l-.41-.46a5.34,5.34,0,0,1-.65.5,2.12,2.12,0,0,0-1,1.77v1.23a.61.61,0,0,1-.61.61H8.11a.61.61,0,0,1-.62-.61V13.34a2.07,2.07,0,0,0-1-1.74A5.25,5.25,0,0,1,8.74,2a4.89,4.89,0,0,1,.54,0s0,0,0,0a.32.32,0,0,0,.06.23l.73,1a.3.3,0,0,1,0,.34.32.32,0,0,1-.31.15l-1.2-.17a.3.3,0,0,0-.35.26L8,5.58A.32.32,0,0,0,8,5.81a.28.28,0,0,0,.2.12l1.2.17a.32.32,0,0,1,.26.23.29.29,0,0,1-.12.32l-1,.73a.31.31,0,0,0-.06.43L9.63,9.3a.31.31,0,0,0,.43.06l1-.73a.32.32,0,0,1,.35,0,.31.31,0,0,1,.14.31l-.17,1.2a.31.31,0,0,0,.27.35l1.83.26h0a.34.34,0,0,0,.19-.07.32.32,0,0,0,.12-.2L14,9.27A.32.32,0,0,1,14.2,9a.31.31,0,0,1,.32.12l.73,1a.31.31,0,0,0,.43.06l1.48-1.11a.31.31,0,0,0,.07-.43l-.73-1a.31.31,0,0,1,.29-.49l1.2.17a.32.32,0,0,0,.35-.26l.26-1.84a.31.31,0,0,0-.26-.35ZM4,9.65A5.9,5.9,0,0,0,5.17,11.3,1.23,1.23,0,1,1,4,9.65ZM10,18H8.73a.61.61,0,0,1-.62-.62v-.3h2.47v.3A.62.62,0,0,1,10,18Zm.62-2.16v.62H8.11v-.62ZM6.8,12.91l-.66.66-.64-.44a.6.6,0,0,0-.58-.07.62.62,0,0,0-.38.45l-.16.77H3.65l-.17-.77a.63.63,0,0,0-.37-.45.63.63,0,0,0-.58.07l-.64.44L1.33,13l.44-.64a.6.6,0,0,0,.06-.58.59.59,0,0,0-.44-.38l-.77-.16v-.73l.77-.17A.59.59,0,0,0,1.83,10a.6.6,0,0,0-.06-.58l-.44-.64.56-.56.64.44a.63.63,0,0,0,.58.06.59.59,0,0,0,.37-.44L3.54,8a6.15,6.15,0,0,0,.24,1.05,1.85,1.85,0,1,0,1.87,2.68,5.17,5.17,0,0,0,.53.39A1.46,1.46,0,0,1,6.8,12.91Zm11-6.24-.89-.13A.94.94,0,0,0,16,8l.55.72-1,.74L15,8.76a.93.93,0,0,0-1.66.42l-.13.9L12,9.9,12.14,9a.93.93,0,0,0-1.48-.87l-.72.54-.74-1,.72-.54A.93.93,0,0,0,9.5,5.49l-.9-.13.18-1.22.89.13a.92.92,0,0,0,.93-.45.89.89,0,0,0-.06-1L10,2.07l1-.74.54.72a.92.92,0,0,0,1.66-.42l.13-.89,1.22.17-.13.89a.92.92,0,0,0,.45.93.9.9,0,0,0,1,0l.72-.55.74,1-.72.54a.92.92,0,0,0,.42,1.66l.9.13Z"/><path class="cls-1" d="M13.27,2.94a2.47,2.47,0,1,0,2.47,2.47A2.47,2.47,0,0,0,13.27,2.94Zm0,4.32a1.86,1.86,0,1,1,1.86-1.85A1.85,1.85,0,0,1,13.27,7.26Z"/><path class="cls-1" d="M9,13.66h.62v.93H9Z"/><path class="cls-1" d="M8,10.63A3.71,3.71,0,0,1,7.37,4L7,3.52a4.32,4.32,0,0,0,.73,7.68A2,2,0,0,1,9,13h.62A2.57,2.57,0,0,0,8,10.63Z"/><path class="cls-1" d="M15.21,11.5h2.16v.62H15.21Z"/><path class="cls-1" d="M14.7,13.59l.4-.48L17,14.66l-.4.47Z"/><path class="cls-1" d="M13.36,14H14v2.16h-.61Z"/><path class="cls-1" d="M.32,5.33l2.46-.61.15.6L.46,5.93Z"/><path class="cls-1" d="M.83,2.18l.36-.5L3.35,3.22,3,3.72Z"/><path class="cls-1" d="M3.47.15,4.07,0,4.7,2.47l-.6.15Z"/></g></g></svg>