<svg xmlns="http://www.w3.org/2000/svg" viewBox="0 0 11.25 10.84"><defs><style>.cls-1,.cls-2,.cls-3{fill:#d9de3e;fill-rule:evenodd;}.cls-2{fill-opacity:0.8;}.cls-3{fill-opacity:0.6;}</style></defs><g id="Capa_2" data-name="Capa 2"><g id="Capa_1-2" data-name="Capa 1"><path class="cls-1" d="M1.25.16,5.68,3.79,10.08.16A.69.69,0,0,1,10.53,0a.7.7,0,0,1,.55.23.68.68,0,0,1-.08,1l-4.9,4a.8.8,0,0,1-.89,0L.3,1.21a.68.68,0,0,1-.07-1A.76.76,0,0,1,1.25.16Z"/><path class="cls-2" d="M1.22,2.89,5.65,6.53l4.41-3.64a.73.73,0,0,1,.44-.15A.69.69,0,0,1,11,4L6.07,8a.8.8,0,0,1-.89,0L.27,4A.68.68,0,0,1,.19,3,.79.79,0,0,1,1.22,2.89Z"/><path class="cls-3" d="M1.19,5.63,5.62,9.27,10,5.63a.71.71,0,0,1,.44-.15.66.66,0,0,1,.55.23.68.68,0,0,1-.08,1l-4.9,4a.8.8,0,0,1-.89,0l-4.9-4a.68.68,0,0,1-.08-1A.76.76,0,0,1,1.19,5.63Z"/></g></g></svg>