<svg xmlns="http://www.w3.org/2000/svg" viewBox="0 0 19.65 18.11"><defs><style>.cls-1{fill:#c5c5c5;}</style></defs><g id="Capa_2" data-name="Capa 2"><g id="Capa_1-2" data-name="Capa 1"><path class="cls-1" d="M18.73,5.83H17.9l-.52-.68a.63.63,0,0,0-.49-.24H13.82a.62.62,0,0,0-.49.24l-.52.68H12a.93.93,0,0,0-.93.92v6.79a.59.59,0,0,0,.16.4l.9,1a.64.64,0,0,0,.47.21h.16l-1.05,2.49a.31.31,0,0,0,.17.4.27.27,0,0,0,.12,0,.3.3,0,0,0,.28-.19l1.15-2.73H17.3l1.15,2.73a.3.3,0,0,0,.28.19.27.27,0,0,0,.12,0,.29.29,0,0,0,.16-.4l-1-2.49h.16a.61.61,0,0,0,.46-.21l.91-1a.59.59,0,0,0,.15-.4V6.75A.92.92,0,0,0,18.73,5.83ZM19,13.54l-.91,1H16.89V14a.31.31,0,0,0-.62,0v.62h-.61V14a.3.3,0,0,0-.31-.3.29.29,0,0,0-.3.3v.62h-.62V14a.31.31,0,0,0-.61,0v.62H12.58l-.91-1V6.75A.31.31,0,0,1,12,6.44h.83a.63.63,0,0,0,.49-.24l.52-.68h3.07l.52.68a.62.62,0,0,0,.49.24h.83a.31.31,0,0,1,.31.31Z"/><path class="cls-1" d="M17.81,7.06H12.9a.61.61,0,0,0-.62.61v3.07a.61.61,0,0,0,.62.61h4.91a.61.61,0,0,0,.61-.61V7.67A.61.61,0,0,0,17.81,7.06ZM12.9,10.74V7.67h4.91v3.07Z"/><path class="cls-1" d="M16.89,16.26H13.82a.31.31,0,1,0,0,.62h3.07a.31.31,0,0,0,0-.62Z"/><path class="cls-1" d="M13.2,12.27h-.61a.31.31,0,1,0,0,.62h.61a.31.31,0,1,0,0-.62Z"/><path class="cls-1" d="M18.12,12.27H17.5a.31.31,0,0,0,0,.62h.62a.31.31,0,0,0,0-.62Z"/><path class="cls-1" d="M10.44,1.84H13.7a1.54,1.54,0,1,0,0-.61H10.44A1.84,1.84,0,0,0,8.6,3.07V4.63a1.56,1.56,0,0,0-1.2,1.2H6.14V3a1.54,1.54,0,1,0-.61,0V5.83H3.07A1.23,1.23,0,0,1,1.84,4.6V3a1.54,1.54,0,1,0-.61,0V4.6A1.84,1.84,0,0,0,3.07,6.44H5.53V9.21A1.23,1.23,0,0,1,4.3,10.43H3a1.53,1.53,0,1,0,0,.62H4.3A1.85,1.85,0,0,0,6.14,9.21V6.44H7.4a1.54,1.54,0,0,0,1.2,1.2v4.05a1.54,1.54,0,0,0,0,3V15a1.23,1.23,0,0,1-1.23,1.22H3a1.54,1.54,0,0,0-3,.31,1.54,1.54,0,0,0,3,.31H7.37A1.84,1.84,0,0,0,9.21,15V14.7a1.54,1.54,0,0,0,0-3v-4a1.53,1.53,0,0,0,1.23-1.5A1.55,1.55,0,0,0,9.21,4.63V3.07A1.23,1.23,0,0,1,10.44,1.84ZM15.2.61a.92.92,0,1,1-.92.92A.92.92,0,0,1,15.2.61ZM4.91,1.53a.93.93,0,0,1,1.85,0,.93.93,0,0,1-1.85,0Zm-4.3,0a.93.93,0,0,1,1.85,0,.93.93,0,0,1-1.85,0Zm.93,10.13a.92.92,0,1,1,.92-.92A.93.93,0,0,1,1.54,11.66Zm0,5.83a.92.92,0,1,1,.92-.92A.93.93,0,0,1,1.54,17.49ZM9.83,13.2a.93.93,0,1,1-.93-.93A.93.93,0,0,1,9.83,13.2Zm0-7.06a.93.93,0,1,1-.93-.92A.93.93,0,0,1,9.83,6.14Z"/></g></g></svg>