<svg xmlns="http://www.w3.org/2000/svg" viewBox="0 0 5.9 5.93"><defs><style>.cls-1{fill:#dcdb22;}</style></defs><g id="Capa_2" data-name="Capa 2"><g id="Capa_1-2" data-name="Capa 1"><path class="cls-1" d="M3.14,0c.13,0,.26,0,.38.06a2.86,2.86,0,0,1,2,1.46,2.94,2.94,0,0,1-2,4.31,3,3,0,0,1-1.88-.26.1.1,0,0,0-.09,0L.19,5.92H.07C0,5.91,0,5.85,0,5.77c.1-.38.2-.76.32-1.14a.45.45,0,0,0,0-.45A2.89,2.89,0,0,1,.55,1.26c0-.05.07-.09.13-.08s.12.11.07.2-.17.26-.24.4A2.66,2.66,0,0,0,.59,4.25a.24.24,0,0,1,0,.22C.5,4.85.4,5.23.29,5.61v0H.34l1.19-.32a.18.18,0,0,1,.16,0,2.69,2.69,0,0,0,3.36-.67,2.65,2.65,0,0,0,.61-1.52A2.68,2.68,0,0,0,3.88.4,2.64,2.64,0,0,0,1.43.7l-.05,0a.12.12,0,0,1-.16,0,.12.12,0,0,1,0-.16,4.23,4.23,0,0,1,.4-.24A2.77,2.77,0,0,1,2.74,0h.4Z"/><path class="cls-1" d="M1,5l.27-.07.38-.1a.16.16,0,0,1,.15,0,2.37,2.37,0,0,0,.76.3,2.22,2.22,0,0,0,1.63-.29l.05,0c.07-.05.14,0,.17,0a.11.11,0,0,1,0,.17,4.3,4.3,0,0,1-.48.24,2.46,2.46,0,0,1-2.1-.15.24.24,0,0,0-.2,0l-.7.19c-.13,0-.2,0-.16-.16s.13-.48.2-.72a.13.13,0,0,0,0-.12,2.45,2.45,0,0,1-.34-.91,2.44,2.44,0,0,1,.62-2.09A2.36,2.36,0,0,1,2.59.49a2.43,2.43,0,0,1,2.23.82,2.31,2.31,0,0,1,.6,1.37A2.46,2.46,0,0,1,5,4.3a.13.13,0,0,1-.17,0,.13.13,0,0,1,0-.18,2.11,2.11,0,0,0,.35-.94,2.16,2.16,0,0,0-.43-1.64A2.19,2.19,0,0,0,3.21.71,2.25,2.25,0,0,0,.76,2.51,2.21,2.21,0,0,0,1,4.08c.15.25.14.15.06.44S1,4.83,1,5Z"/><path class="cls-1" d="M3.73,4.42A1.82,1.82,0,0,1,3,4.22,3.07,3.07,0,0,1,1.52,2.79a1,1,0,0,1,0-.85.7.7,0,0,1,.19-.27.53.53,0,0,1,.5-.11.2.2,0,0,1,.17.14c.08.18.16.35.23.53a.3.3,0,0,1-.06.37.52.52,0,0,1-.1.11.08.08,0,0,0,0,.1,2,2,0,0,0,.79.68h0c.09,0,.09,0,.14,0l.12-.16a.29.29,0,0,1,.4-.09l.46.23a.28.28,0,0,1,.17.27.67.67,0,0,1-.68.7Zm0-.23.15,0a.41.41,0,0,0,.37-.44s0-.06,0-.08l-.45-.22s-.08,0-.12,0l-.15.19a.22.22,0,0,1-.29.09,1.62,1.62,0,0,1-.35-.17A2,2,0,0,1,2.2,2.9a.24.24,0,0,1,0-.32l.12-.13a.09.09,0,0,0,0-.12l-.22-.51s0,0,0,0a.29.29,0,0,0-.27.06.86.86,0,0,0-.13.2.72.72,0,0,0,0,.68A2.75,2.75,0,0,0,3.1,4,1.57,1.57,0,0,0,3.75,4.19Z"/><path class="cls-1" d="M1,1.06A.11.11,0,0,1,.85.94.1.1,0,0,1,1,.83a.12.12,0,0,1,.12.11A.12.12,0,0,1,1,1.06Z"/><path class="cls-1" d="M4.74,4.61a.12.12,0,1,1-.23,0,.11.11,0,0,1,.12-.11A.11.11,0,0,1,4.74,4.61Z"/></g></g></svg>