<svg xmlns="http://www.w3.org/2000/svg" viewBox="0 0 18.73 19.36"><defs><style>.cls-1{fill:#c5c5c5;}</style></defs><g id="Capa_2" data-name="Capa 2"><g id="Capa_1-2" data-name="Capa 1"><path class="cls-1" d="M16.32,13.6v-.17l0-.16a.94.94,0,0,0,0-.16A.88.88,0,0,0,16.2,13a1,1,0,0,0-.07-.15.64.64,0,0,0-.08-.14l-.1-.14-.1-.12-.12-.11-.13-.1a.55.55,0,0,0-.14-.09L15.31,12,15.16,12l-.16,0-.16,0-.16,0h-.33l-.16,0L14,12l-.15.07-.15.07-.13.09-.13.11-.12.11a1.47,1.47,0,0,0-.1.13,1.13,1.13,0,0,0-.1.13l-.08.15L13,13a.88.88,0,0,0,0,.15,1.24,1.24,0,0,0,0,.16,1,1,0,0,0,0,.17,2.57,2.57,0,0,0,0,.32,1,1,0,0,0,0,.17.88.88,0,0,0,.05.15.75.75,0,0,0,0,.16l.07.15.09.14a1.13,1.13,0,0,0,.1.13l.11.12.12.11.13.1.14.08.15.07.15.06.16,0a.9.9,0,0,0,.16,0H13.27l-.14,0-.15,0-.13.05-.14.07-.12.07-.12.09-.11.1-.1.11a.44.44,0,0,0-.08.11l-.08.13-.06.13a.78.78,0,0,0,0,.14c0,.05,0,.09,0,.14s0,.1,0,.15V18s0,.1,0,.14,0,.1,0,.15a.69.69,0,0,0,0,.13l.06.14.08.12a.83.83,0,0,0,.08.12l.1.11.11.1.12.08.12.08.14.06.13.05.15,0,.14,0h2.67l.14,0,.14,0,.14-.05.13-.06a.57.57,0,0,0,.13-.08l.12-.08.1-.1.1-.11.09-.12.08-.12.06-.14s0-.09,0-.13l0-.15a.59.59,0,0,0,0-.14.76.76,0,0,0,0-.15V16.79a.76.76,0,0,0,0-.15.68.68,0,0,0,0-.14l0-.14c0-.05,0-.1,0-.14l-.06-.13L17,16l-.09-.12-.1-.11-.1-.09a.94.94,0,0,0-.12-.09l-.13-.08-.13-.06-.14-.05-.14,0-.14,0H14.79l.16,0,.15,0,.15-.06.14-.06.14-.08.12-.09a.4.4,0,0,0,.12-.1.57.57,0,0,0,.11-.11l.1-.12.09-.13.08-.14.06-.14c0-.05,0-.1.05-.15a.8.8,0,0,0,0-.15l0-.16Zm.3,3.19v1.07a1,1,0,0,1,0,.17.88.88,0,0,1-.05.15.61.61,0,0,1-.07.14.69.69,0,0,1-.11.13l-.12.1-.15.08-.15.05H13.27l-.16-.05L13,18.55l-.13-.1a1.47,1.47,0,0,1-.1-.13.61.61,0,0,1-.07-.14.44.44,0,0,1-.05-.15,1,1,0,0,1,0-.17V16.79a.78.78,0,0,1,0-.16.43.43,0,0,1,.05-.16.61.61,0,0,1,.07-.14,1.47,1.47,0,0,1,.1-.13l.13-.1.14-.08.16,0,.16,0h2.36L16,16l.16,0,.14.08.13.1.1.13a.91.91,0,0,1,.07.14,1,1,0,0,1,.05.16A.88.88,0,0,1,16.62,16.79Zm-2-2.14H14.4l-.1,0-.09,0-.1-.05-.08,0-.09-.06-.07-.07a.27.27,0,0,1-.07-.08l-.06-.08-.06-.09,0-.09a1,1,0,0,1,0-.1s0-.06,0-.1,0-.06,0-.1v-.21s0-.06,0-.1,0-.06,0-.1l0-.09a1,1,0,0,1,0-.1l.06-.09.06-.08.07-.08.07-.06.09-.07.08-.05.1,0,.09,0,.1,0,.11,0h.2l.11,0,.1,0,.09,0,.1,0,.08.05.09.07.07.06.07.08.06.08.06.09a1,1,0,0,1,0,.1l0,.09s0,.07,0,.1,0,.07,0,.1v.21s0,.07,0,.1,0,.07,0,.1a1,1,0,0,1,0,.1l0,.09-.06.09-.06.08a.27.27,0,0,1-.07.08l-.07.07-.09.06-.08,0-.1.05-.1,0-.1,0h-.2Z"/><path class="cls-1" d="M17.17,0H14.81V2.85l-2.29.88V2.61L9.2,3.88V6.94h8ZM11.85,6.28h-2V4.34l2-.77Zm2.93,0h-2V4.34l2-.77ZM16.51.66V3.14h-1V.66Zm-1,5.62V3.79h1V6.28Z"/><path class="cls-1" d="M.28,14.63H1.39a.57.57,0,0,0,0,.13.59.59,0,0,0,0,.13.5.5,0,0,0,0,.13.5.5,0,0,0,.05.13.34.34,0,0,0,.06.12.41.41,0,0,0,.07.11.76.76,0,0,0,.08.11l.09.1.11.09.1.07.12.07.12.06.13,0,.13,0,.14,0h.26l.14,0,.13,0,.13,0,.12-.06a.41.41,0,0,0,.11-.07l.11-.07.11-.09.09-.1.08-.11A.41.41,0,0,0,4,15.27l.06-.12a.5.5,0,0,0,0-.13.5.5,0,0,0,0-.13.59.59,0,0,0,0-.13.57.57,0,0,0,0-.13H4.6s0,.08,0,.13l0,.13a.65.65,0,0,0,0,.13.61.61,0,0,0,.05.12.34.34,0,0,0,.06.12.41.41,0,0,0,.07.11.76.76,0,0,0,.08.11l.09.09.1.09.11.08.12.07.12,0,.13,0,.13,0,.13,0h.27l.13,0,.13,0,.12,0,.13,0,.11-.07.11-.08a.43.43,0,0,0,.1-.09l.09-.09.09-.11.07-.11.06-.12,0-.12,0-.13a.59.59,0,0,0,0-.13s0-.09,0-.13H9V10.94L7.74,9.24h-2V7.72H0v5.07H.28Zm2.51.67H2.64l-.14,0-.12-.07-.12-.09L2.17,15a.54.54,0,0,1-.07-.13.57.57,0,0,1,0-.14.66.66,0,0,1,0-.14.62.62,0,0,1,0-.19.49.49,0,0,1,0-.11.39.39,0,0,1,.06-.11.36.36,0,0,1,.07-.1L2.33,14l.11-.07.11-.05.12,0h.24l.12,0,.11.05.11.07.09.08a.86.86,0,0,1,.07.1l.06.11a.49.49,0,0,1,0,.11.55.55,0,0,1,0,.18.76.76,0,0,1,0,.15.74.74,0,0,1,0,.14.54.54,0,0,1-.07.13l-.09.11-.12.09-.13.07-.14,0ZM6,15.3H5.86l-.14,0-.13-.07a.31.31,0,0,1-.11-.09A.31.31,0,0,1,5.39,15a.54.54,0,0,1-.07-.13.58.58,0,0,1-.05-.14.66.66,0,0,1,0-.14,1.23,1.23,0,0,1,0-.19s0-.08,0-.11l.06-.11a.39.39,0,0,1,.08-.1A.24.24,0,0,1,5.55,14l.1-.07.11-.05.12,0h.25l.11,0,.12.05.1.07.09.08a.36.36,0,0,1,.07.1.24.24,0,0,1,.06.11.36.36,0,0,1,0,.11,1.08,1.08,0,0,1,0,.19.78.78,0,0,1,0,.14.57.57,0,0,1,0,.14.54.54,0,0,1-.07.13l-.09.11a.44.44,0,0,1-.11.09l-.13.07-.14,0ZM7.41,9.91l.91,1.25V14h-1l-.09-.17-.12-.16-.15-.14a.61.61,0,0,0-.16-.12,1,1,0,0,0-.17-.1l-.19-.07-.19,0h-.4l-.19,0-.19.07-.18.1a.83.83,0,0,0-.16.12,1.85,1.85,0,0,0-.14.14l-.12.16a.91.91,0,0,0-.09.17H4.07L4,13.8l-.12-.16-.15-.14a.61.61,0,0,0-.16-.12,1,1,0,0,0-.17-.1l-.19-.07-.19,0H2.6l-.2,0-.18.07-.18.1a.83.83,0,0,0-.16.12.93.93,0,0,0-.14.14l-.12.16a1,1,0,0,0-.1.17H1V12.81H5.7V9.91ZM.66,8.38H5v3.75H.66Z"/><path class="cls-1" d="M9.79.92A7.55,7.55,0,0,1,10.85,1a7.34,7.34,0,0,1,1,.2,8.52,8.52,0,0,1,1,.33,8.52,8.52,0,0,1,1,.47l.33-.58-.45-.24L13.28,1,12.81.78,12.33.62,11.84.49l-.49-.1-.5-.07-.5,0-.51,0-.5,0a4.38,4.38,0,0,0-.51,0c-.17,0-.33,0-.5.06l-.49.1L7.35.6a4,4,0,0,0-.49.15,4.52,4.52,0,0,0-.47.18l-.46.2-.45.23L5,1.62l-.42.28-.4.3-.39.33-.36.35c-.12.11-.24.24-.35.36l-.33.39-.3.4c-.1.14-.19.28-.28.42L2,4.89l-.23.45c-.07.15-.14.31-.2.46l-.18.47c-.05.16-.11.32-.15.49l.64.16q.09-.31.21-.63c.08-.21.16-.42.26-.62a6.63,6.63,0,0,1,.31-.59c.11-.19.23-.38.35-.56A5.47,5.47,0,0,1,3.37,4c.14-.17.28-.34.44-.5A5.22,5.22,0,0,1,4.29,3l.52-.43c.17-.13.36-.26.55-.38a6.48,6.48,0,0,1,.57-.33c.2-.11.4-.2.61-.29a6.62,6.62,0,0,1,.62-.24l.64-.19L8.46,1C8.68,1,8.9,1,9.12,1S9.57.92,9.79.92Z"/><path class="cls-1" d="M11.46,18l-.12-.65a8.93,8.93,0,0,1-1.55.14c-.23,0-.47,0-.7,0s-.46,0-.7-.08-.45-.09-.68-.15L7,17l-.65-.26c-.21-.1-.42-.2-.63-.32a5.27,5.27,0,0,1-.59-.37c-.2-.13-.38-.27-.57-.41l-.41.51c.2.16.4.31.61.45l.64.4.68.34.7.28.72.22.74.16L9,18.1c.26,0,.51,0,.76,0A10.38,10.38,0,0,0,11.46,18Z"/><path class="cls-1" d="M17.51,6.21a4,4,0,0,1,.17.49,4.5,4.5,0,0,1,.14.49,4.64,4.64,0,0,1,.11.51c0,.16.06.33.08.5s0,.35,0,.52,0,.34,0,.51,0,.35,0,.52,0,.34-.05.51-.05.34-.08.51a4.54,4.54,0,0,1-.12.5c0,.17-.09.33-.14.49s-.11.33-.17.49l-.21.47c-.07.16-.15.31-.23.46s-.17.3-.26.44l-.29.43.53.39.32-.46.28-.48c.09-.16.17-.33.25-.5s.15-.33.22-.5.13-.35.19-.53a4.61,4.61,0,0,0,.15-.53c0-.18.09-.36.13-.54s.06-.37.08-.55a5.14,5.14,0,0,0,.06-.55c0-.19,0-.37,0-.56s0-.37,0-.55,0-.37,0-.56-.05-.36-.09-.54-.07-.37-.11-.55l-.15-.53c-.06-.18-.12-.35-.19-.53Z"/></g></g></svg>