<svg xmlns="http://www.w3.org/2000/svg" xmlns:xlink="http://www.w3.org/1999/xlink" viewBox="0 0 231.98 224.31"><defs><style>.cls-1{fill:none;}.cls-2{fill:#d9de3e;}.cls-3{clip-path:url(#clip-path);}.cls-4{opacity:0.23;}.cls-5{clip-path:url(#clip-path-2);}.cls-6{opacity:0.55;}.cls-7{clip-path:url(#clip-path-3);}.cls-8{clip-path:url(#clip-path-4);}.cls-9{clip-path:url(#clip-path-5);}.cls-10{clip-path:url(#clip-path-6);}.cls-11{clip-path:url(#clip-path-7);}.cls-12{clip-path:url(#clip-path-8);}.cls-13{clip-path:url(#clip-path-9);}.cls-14{clip-path:url(#clip-path-10);}.cls-15{clip-path:url(#clip-path-11);}.cls-16{clip-path:url(#clip-path-12);}.cls-17{clip-path:url(#clip-path-13);}.cls-18{clip-path:url(#clip-path-14);}.cls-19{clip-path:url(#clip-path-15);}.cls-20{clip-path:url(#clip-path-16);}.cls-21{clip-path:url(#clip-path-17);}.cls-22{clip-path:url(#clip-path-18);}.cls-23{clip-path:url(#clip-path-19);}.cls-24{clip-path:url(#clip-path-20);}.cls-25{clip-path:url(#clip-path-21);}.cls-26{clip-path:url(#clip-path-22);}.cls-27{clip-path:url(#clip-path-23);}.cls-28{clip-path:url(#clip-path-24);}.cls-29{clip-path:url(#clip-path-25);}.cls-30{clip-path:url(#clip-path-26);}.cls-31{clip-path:url(#clip-path-27);}.cls-32{clip-path:url(#clip-path-28);}.cls-33{clip-path:url(#clip-path-29);}.cls-34{clip-path:url(#clip-path-30);}.cls-35{clip-path:url(#clip-path-31);}.cls-36{clip-path:url(#clip-path-32);}</style><clipPath id="clip-path"><rect class="cls-1" x="48.47" y="28.97" width="108" height="153.08"/></clipPath><clipPath id="clip-path-2"><rect class="cls-1" x="30.21" y="62.83" width="37.31" height="153.89" transform="translate(-53.54 32.82) rotate(-24.49)"/></clipPath><clipPath id="clip-path-3"><rect class="cls-2" x="133.16" y="50.12" width="2.64" height="2.43" transform="translate(-9.05 62.21) rotate(-25.23)"/></clipPath><clipPath id="clip-path-4"><rect class="cls-2" x="141.93" y="45.92" width="2.89" height="2.43" transform="translate(-6.42 65.6) rotate(-25.23)"/></clipPath><clipPath id="clip-path-5"><rect class="cls-2" x="151.24" y="41.54" width="2.89" height="2.43" transform="translate(-3.66 69.15) rotate(-25.23)"/></clipPath><clipPath id="clip-path-6"><rect class="cls-2" x="160.56" y="37.23" width="2.57" height="2.43" transform="translate(-0.95 72.64) rotate(-25.23)"/></clipPath><clipPath id="clip-path-7"><rect class="cls-2" x="169.86" y="32.84" width="2.57" height="2.43" transform="translate(1.81 76.19) rotate(-25.23)"/></clipPath><clipPath id="clip-path-8"><rect class="cls-2" x="178.86" y="28.53" width="2.89" height="2.43" transform="translate(4.52 79.68) rotate(-25.23)"/></clipPath><clipPath id="clip-path-9"><rect class="cls-2" x="188.16" y="24.15" width="2.89" height="2.43" transform="translate(7.27 83.23) rotate(-25.23)"/></clipPath><clipPath id="clip-path-10"><rect class="cls-2" x="197.48" y="19.82" width="2.6" height="2.43" transform="translate(9.99 86.72) rotate(-25.23)"/></clipPath><clipPath id="clip-path-11"><rect class="cls-2" x="137.11" y="58.41" width="2.64" height="2.57" transform="translate(-12.24 64.69) rotate(-25.23)"/></clipPath><clipPath id="clip-path-12"><rect class="cls-2" x="201.42" y="28.12" width="2.6" height="2.57" transform="translate(6.8 89.2) rotate(-25.23)"/></clipPath><clipPath id="clip-path-13"><rect class="cls-2" x="141.01" y="66.54" width="2.64" height="2.89" transform="translate(-15.4 67.14) rotate(-25.23)"/></clipPath><clipPath id="clip-path-14"><rect class="cls-2" x="205.33" y="36.25" width="2.6" height="2.89" transform="translate(3.64 91.66) rotate(-25.23)"/></clipPath><clipPath id="clip-path-15"><rect class="cls-2" x="144.98" y="74.97" width="2.64" height="2.89" transform="translate(-18.62 69.64) rotate(-25.23)"/></clipPath><clipPath id="clip-path-16"><rect class="cls-2" x="209.3" y="44.68" width="2.6" height="2.89" transform="translate(0.43 94.15) rotate(-25.23)"/></clipPath><clipPath id="clip-path-17"><rect class="cls-2" x="148.95" y="83.4" width="2.64" height="2.89" transform="translate(-21.83 72.13) rotate(-25.23)"/></clipPath><clipPath id="clip-path-18"><rect class="cls-2" x="213.27" y="53.11" width="2.6" height="2.89" transform="translate(-2.79 96.65) rotate(-25.23)"/></clipPath><clipPath id="clip-path-19"><rect class="cls-2" x="152.86" y="91.85" width="2.64" height="2.57" transform="translate(-24.99 74.59) rotate(-25.23)"/></clipPath><clipPath id="clip-path-20"><rect class="cls-2" x="217.18" y="61.56" width="2.6" height="2.57" transform="translate(-5.95 99.1) rotate(-25.23)"/></clipPath><clipPath id="clip-path-21"><rect class="cls-2" x="156.76" y="99.97" width="2.64" height="2.89" transform="translate(-28.15 77.04) rotate(-25.23)"/></clipPath><clipPath id="clip-path-22"><rect class="cls-2" x="221.08" y="69.68" width="2.6" height="2.89" transform="translate(-9.11 101.56) rotate(-25.23)"/></clipPath><clipPath id="clip-path-23"><rect class="cls-2" x="160.73" y="108.41" width="2.64" height="2.89" transform="translate(-31.36 79.54) rotate(-25.23)"/></clipPath><clipPath id="clip-path-24"><rect class="cls-2" x="225.05" y="78.11" width="2.6" height="2.89" transform="translate(-12.32 104.05) rotate(-25.23)"/></clipPath><clipPath id="clip-path-25"><rect class="cls-2" x="164.64" y="116.85" width="2.64" height="2.57" transform="translate(-34.52 81.99) rotate(-25.23)"/></clipPath><clipPath id="clip-path-26"><rect class="cls-2" x="173.41" y="112.66" width="2.89" height="2.57" transform="translate(-31.89 85.39) rotate(-25.23)"/></clipPath><clipPath id="clip-path-27"><rect class="cls-2" x="182.71" y="108.28" width="2.89" height="2.57" transform="translate(-29.13 88.93) rotate(-25.23)"/></clipPath><clipPath id="clip-path-28"><rect class="cls-2" x="192.03" y="103.96" width="2.57" height="2.57" transform="translate(-26.42 92.42) rotate(-25.23)"/></clipPath><clipPath id="clip-path-29"><rect class="cls-2" x="201.33" y="99.58" width="2.57" height="2.57" transform="translate(-23.66 95.97) rotate(-25.23)"/></clipPath><clipPath id="clip-path-30"><rect class="cls-2" x="210.33" y="95.27" width="2.89" height="2.57" transform="translate(-20.95 99.46) rotate(-25.23)"/></clipPath><clipPath id="clip-path-31"><rect class="cls-2" x="219.64" y="90.88" width="2.89" height="2.57" transform="translate(-18.2 103.01) rotate(-25.23)"/></clipPath><clipPath id="clip-path-32"><rect class="cls-2" x="228.95" y="86.56" width="2.6" height="2.57" transform="translate(-15.48 106.51) rotate(-25.23)"/></clipPath></defs><g id="Capa_2" data-name="Capa 2"><g id="Capa_1-2" data-name="Capa 1"><g class="cls-3"><image width="1080" height="1920" transform="translate(38.61) scale(0.12)" xlink:href="../../../../../Users/Francisco%20Melchiori/Downloads/verticales%20industria%20(1)/V5%20(17).png"/><g class="cls-4"><g class="cls-5"><path class="cls-2" d="M23.8,129.68l-4.72-10.35,45.31,9.61,4.71,10.35ZM0,77.47,4.73,87.83,50,97.44,45.32,87.08ZM97.7,202.08,93,191.73l-45.3-9.61,4.71,10.36ZM59.57,118.37,54.86,108,9.55,98.4l4.71,10.36Zm19.06,41.86-4.71-10.36-45.31-9.61,4.72,10.35Zm9.53,20.92L83.45,170.8l-45.3-9.61,4.71,10.35Z"/></g></g><g class="cls-6"><rect class="cls-2" x="133.16" y="50.12" width="2.64" height="2.43" transform="translate(-9.05 62.21) rotate(-25.23)"/><g class="cls-7"><path class="cls-2" d="M133.89,50.27a1.19,1.19,0,0,1,.93-.05,1.33,1.33,0,0,1,.41.25,1.08,1.08,0,0,1,.28.38,1,1,0,0,1,.11.46,1,1,0,0,1-.07.46,1.06,1.06,0,0,1-.24.41,1.29,1.29,0,0,1-.38.28,1.25,1.25,0,0,1-.46.12,1.49,1.49,0,0,1-.47-.07,1.33,1.33,0,0,1-.41-.25,1.17,1.17,0,0,1-.28-.38,1,1,0,0,1-.11-.46,1.21,1.21,0,0,1,.31-.87A1.14,1.14,0,0,1,133.89,50.27Z"/></g><rect class="cls-2" x="141.93" y="45.92" width="2.89" height="2.43" transform="translate(-6.42 65.6) rotate(-25.23)"/><g class="cls-8"><path class="cls-2" d="M142.86,46a1.25,1.25,0,0,1,.93,0,1.14,1.14,0,0,1,.41.24,1.29,1.29,0,0,1,.28.38,1.24,1.24,0,0,1,.11.46,1.08,1.08,0,0,1-.07.47,1,1,0,0,1-.24.4,1.33,1.33,0,0,1-.38.29,1.47,1.47,0,0,1-.46.11,1.08,1.08,0,0,1-.47-.07,1.14,1.14,0,0,1-.41-.24,1.29,1.29,0,0,1-.28-.38,1.25,1.25,0,0,1,0-.93,1.14,1.14,0,0,1,.24-.41A1.29,1.29,0,0,1,142.86,46Z"/></g><rect class="cls-2" x="151.24" y="41.54" width="2.89" height="2.43" transform="translate(-3.66 69.15) rotate(-25.23)"/><g class="cls-9"><path class="cls-2" d="M152.13,41.68a1.16,1.16,0,0,1,.45-.12,1.2,1.2,0,0,1,.88.32,1.08,1.08,0,0,1,.28.38,1.11,1.11,0,0,1,0,.92,1.06,1.06,0,0,1-.24.41,1.29,1.29,0,0,1-.38.28,1.19,1.19,0,0,1-.93.05,1.18,1.18,0,0,1-.4-.25,1.2,1.2,0,0,1,.3-2Z"/></g><rect class="cls-2" x="160.56" y="37.23" width="2.57" height="2.43" transform="translate(-0.95 72.64) rotate(-25.23)"/><g class="cls-10"><path class="cls-2" d="M161.37,37.32a1.24,1.24,0,0,1,1.33.2,1.29,1.29,0,0,1,.28.38,1.25,1.25,0,0,1,.12.46,1.49,1.49,0,0,1-.07.47,1.33,1.33,0,0,1-.25.41,1.17,1.17,0,0,1-.38.28,1.25,1.25,0,0,1-.93,0,1,1,0,0,1-.4-.24,1.2,1.2,0,0,1-.29-.38,1.47,1.47,0,0,1-.11-.46,1.25,1.25,0,0,1,.07-.47,1.15,1.15,0,0,1,.24-.4A1.24,1.24,0,0,1,161.37,37.32Z"/></g><rect class="cls-2" x="169.86" y="32.84" width="2.57" height="2.43" transform="translate(1.81 76.19) rotate(-25.23)"/><g class="cls-11"><path class="cls-2" d="M170.61,33a1.22,1.22,0,0,1,.92,0,1.06,1.06,0,0,1,.41.24,1.29,1.29,0,0,1,.28.38,1.25,1.25,0,0,1,.12.46,1.49,1.49,0,0,1-.07.47,1.18,1.18,0,0,1-.25.4,1.2,1.2,0,0,1-.38.29,1.47,1.47,0,0,1-.46.11,1.08,1.08,0,0,1-.47-.07,1.15,1.15,0,0,1-.4-.24,1.33,1.33,0,0,1-.29-.38,1.47,1.47,0,0,1-.11-.46,1.25,1.25,0,0,1,.07-.47,1.16,1.16,0,0,1,.25-.41A1.08,1.08,0,0,1,170.61,33Z"/></g><rect class="cls-2" x="178.86" y="28.53" width="2.89" height="2.43" transform="translate(4.52 79.68) rotate(-25.23)"/><g class="cls-12"><path class="cls-2" d="M179.84,28.62a1.25,1.25,0,0,1,.93,0,1.14,1.14,0,0,1,.41.24,1.49,1.49,0,0,1,.28.38,1.47,1.47,0,0,1,.11.46,1.08,1.08,0,0,1-.07.47,1.25,1.25,0,0,1-.24.4,1.24,1.24,0,0,1-.39.29,1.35,1.35,0,0,1-.46.11,1.25,1.25,0,0,1-.87-.31,1.29,1.29,0,0,1-.28-.38,1.25,1.25,0,0,1-.12-.46,1.49,1.49,0,0,1,.07-.47,1.33,1.33,0,0,1,.25-.41A1.17,1.17,0,0,1,179.84,28.62Z"/></g><rect class="cls-2" x="188.16" y="24.15" width="2.89" height="2.43" transform="translate(7.27 83.23) rotate(-25.23)"/><g class="cls-13"><path class="cls-2" d="M189.06,24.28a1.19,1.19,0,0,1,.93-.05,1.33,1.33,0,0,1,.41.25,1.08,1.08,0,0,1,.28.38,1.15,1.15,0,0,1,.11.46,1,1,0,0,1-.07.46,1.06,1.06,0,0,1-.24.41,1.29,1.29,0,0,1-.38.28,1.25,1.25,0,0,1-.46.12,1.49,1.49,0,0,1-.47-.07,1.33,1.33,0,0,1-.41-.25,1.17,1.17,0,0,1-.28-.38,1,1,0,0,1-.11-.46,1.21,1.21,0,0,1,.31-.87A1.14,1.14,0,0,1,189.06,24.28Z"/></g><rect class="cls-2" x="197.48" y="19.82" width="2.6" height="2.43" transform="translate(9.99 86.72) rotate(-25.23)"/><g class="cls-14"><path class="cls-2" d="M198.33,19.91a1,1,0,0,1,.46-.11,1.21,1.21,0,0,1,.87.31,1.14,1.14,0,0,1,.28.38,1.25,1.25,0,0,1,.12.46,1.49,1.49,0,0,1-.07.47,1.18,1.18,0,0,1-.25.4,1.2,1.2,0,0,1-.38.29,1.41,1.41,0,0,1-.46.11,1.08,1.08,0,0,1-.47-.07,1.25,1.25,0,0,1-.4-.24,1.14,1.14,0,0,1-.28-.38,1.19,1.19,0,0,1-.05-.93,1.33,1.33,0,0,1,.25-.41A1.17,1.17,0,0,1,198.33,19.91Z"/></g><rect class="cls-2" x="137.11" y="58.41" width="2.64" height="2.57" transform="translate(-12.24 64.69) rotate(-25.23)"/><g class="cls-15"><path class="cls-2" d="M137.83,58.62a1.47,1.47,0,0,1,.46-.11,1.25,1.25,0,0,1,.47.07,1.3,1.3,0,0,1,.41.24,1.39,1.39,0,0,1,.28.39,1.15,1.15,0,0,1,.11.45,1.06,1.06,0,0,1-.07.47,1.17,1.17,0,0,1-.62.69,1.25,1.25,0,0,1-.46.12,1.45,1.45,0,0,1-.47-.07,1.33,1.33,0,0,1-.41-.25,1.17,1.17,0,0,1-.28-.38,1,1,0,0,1-.11-.46,1.24,1.24,0,0,1,.06-.47,1.28,1.28,0,0,1,.25-.4A1.2,1.2,0,0,1,137.83,58.62Z"/></g><path class="cls-2" d="M146.8,54.4a1.07,1.07,0,0,1,.46-.11,1.24,1.24,0,0,1,.47.06,1.18,1.18,0,0,1,.4.25,1.2,1.2,0,0,1,.29.38,1.24,1.24,0,0,1,.11.46,1.08,1.08,0,0,1-.07.47,1.25,1.25,0,0,1-.24.4,1.08,1.08,0,0,1-.39.28,1.16,1.16,0,0,1-.45.12,1.22,1.22,0,0,1-.47-.07,1.2,1.2,0,0,1-.41-.24,1.29,1.29,0,0,1-.28-.38,1.25,1.25,0,0,1-.12-.46,1.49,1.49,0,0,1,.07-.47,1.33,1.33,0,0,1,.25-.41A1.17,1.17,0,0,1,146.8,54.4Z"/><path class="cls-2" d="M156.06,50a1.19,1.19,0,0,1,.93,0,1.33,1.33,0,0,1,.41.25,1.08,1.08,0,0,1,.28.38,1,1,0,0,1,.11.46,1,1,0,0,1-.07.46,1.06,1.06,0,0,1-.24.41,1.29,1.29,0,0,1-.38.28,1.25,1.25,0,0,1-.46.12,1.49,1.49,0,0,1-.47-.07,1.33,1.33,0,0,1-.41-.25,1.17,1.17,0,0,1-.28-.38,1,1,0,0,1-.11-.46,1.21,1.21,0,0,1,.31-.87A1.14,1.14,0,0,1,156.06,50Z"/><path class="cls-2" d="M165.3,45.68a1.24,1.24,0,0,1,.46-.11,1.08,1.08,0,0,1,.47.07,1.14,1.14,0,0,1,.41.24,1.29,1.29,0,0,1,.28.38,1.25,1.25,0,0,1,0,.93,1.14,1.14,0,0,1-.24.41,1.29,1.29,0,0,1-.38.28,1.25,1.25,0,0,1-.93,0,1.14,1.14,0,0,1-.41-.24,1.29,1.29,0,0,1-.28-.38,1.24,1.24,0,0,1-.11-.46,1.08,1.08,0,0,1,.07-.47,1.14,1.14,0,0,1,.24-.41A1.49,1.49,0,0,1,165.3,45.68Z"/><path class="cls-2" d="M174.54,41.33a1.07,1.07,0,0,1,.46-.11,1.24,1.24,0,0,1,.47.06,1.33,1.33,0,0,1,.41.25,1.17,1.17,0,0,1,.28.38,1,1,0,0,1,.11.46,1.08,1.08,0,0,1-.07.47,1.1,1.1,0,0,1-.24.4,1.14,1.14,0,0,1-.38.28,1.19,1.19,0,0,1-.93,0A1.17,1.17,0,0,1,174,43a1.24,1.24,0,0,1-.11-.46,1.08,1.08,0,0,1,.07-.47,1.14,1.14,0,0,1,.24-.41A1.29,1.29,0,0,1,174.54,41.33Z"/><path class="cls-2" d="M183.78,37a1.21,1.21,0,0,1,.46-.12,1.49,1.49,0,0,1,.47.07,1.28,1.28,0,0,1,.4.25,1,1,0,0,1,.28.38,1.21,1.21,0,0,1,.12.46,1.25,1.25,0,0,1-.07.47,1.28,1.28,0,0,1-.25.4,1,1,0,0,1-.38.28,1.21,1.21,0,0,1-.46.12,1.28,1.28,0,0,1-.47-.07,1.25,1.25,0,0,1-.4-.24,1.08,1.08,0,0,1-.28-.39,1.16,1.16,0,0,1-.12-.45,1.45,1.45,0,0,1,.07-.47,1.33,1.33,0,0,1,.25-.41A1.17,1.17,0,0,1,183.78,37Z"/><path class="cls-2" d="M193,32.63a1.47,1.47,0,0,1,.46-.11,1.25,1.25,0,0,1,.47.07,1.15,1.15,0,0,1,.4.24,1.33,1.33,0,0,1,.29.38,1.47,1.47,0,0,1,.11.46,1.22,1.22,0,0,1-.07.47,1.3,1.3,0,0,1-.24.41,1.21,1.21,0,0,1-.39.28,1.16,1.16,0,0,1-.46.12,1.21,1.21,0,0,1-.46-.08,1.06,1.06,0,0,1-.41-.24,1.17,1.17,0,0,1-.28-.38,1.25,1.25,0,0,1-.12-.46,1.49,1.49,0,0,1,.07-.47,1.28,1.28,0,0,1,.25-.4A1.2,1.2,0,0,1,193,32.63Z"/><rect class="cls-2" x="201.42" y="28.12" width="2.6" height="2.57" transform="translate(6.8 89.2) rotate(-25.23)"/><g class="cls-16"><path class="cls-2" d="M202.26,28.27a1.08,1.08,0,0,1,.47-.11,1.19,1.19,0,0,1,.46.06,1.22,1.22,0,0,1,.41.25,1.17,1.17,0,0,1,.28.38,1.25,1.25,0,0,1,.12.46,1.49,1.49,0,0,1-.07.47,1.28,1.28,0,0,1-.25.4,1.2,1.2,0,0,1-.38.29,1.47,1.47,0,0,1-.46.11,1.25,1.25,0,0,1-.47-.07,1.3,1.3,0,0,1-.41-.24,1.49,1.49,0,0,1-.28-.38,1.47,1.47,0,0,1-.11-.46,1.08,1.08,0,0,1,.07-.47,1.17,1.17,0,0,1,.62-.69Z"/></g><rect class="cls-2" x="141.01" y="66.54" width="2.64" height="2.89" transform="translate(-15.4 67.14) rotate(-25.23)"/><g class="cls-17"><path class="cls-2" d="M141.77,67a1.41,1.41,0,0,1,.46-.11,1.25,1.25,0,0,1,.47.07,1.15,1.15,0,0,1,.4.24,1.14,1.14,0,0,1,.28.38,1.19,1.19,0,0,1,.05.93,1.33,1.33,0,0,1-.25.41,1.08,1.08,0,0,1-.38.28,1,1,0,0,1-.46.11,1.21,1.21,0,0,1-.87-.31,1.17,1.17,0,0,1-.28-.38,1.25,1.25,0,0,1-.12-.46,1.49,1.49,0,0,1,.07-.47,1.28,1.28,0,0,1,.25-.4A1.2,1.2,0,0,1,141.77,67Z"/></g><path class="cls-2" d="M150.74,62.76a1.21,1.21,0,0,1,.46-.12,1.49,1.49,0,0,1,.47.07,1.28,1.28,0,0,1,.4.25,1,1,0,0,1,.28.38,1.21,1.21,0,0,1,.12.46,1.25,1.25,0,0,1-.07.47,1.28,1.28,0,0,1-.25.4,1.08,1.08,0,0,1-.38.28,1.21,1.21,0,0,1-.46.12,1.28,1.28,0,0,1-.47-.07,1.47,1.47,0,0,1-.4-.24,1.21,1.21,0,0,1-.28-.39,1.16,1.16,0,0,1-.12-.46,1.2,1.2,0,0,1,.07-.46,1.22,1.22,0,0,1,.25-.41A1.17,1.17,0,0,1,150.74,62.76Z"/><path class="cls-2" d="M160,58.39a1.47,1.47,0,0,1,.46-.11,1.25,1.25,0,0,1,.47.07,1.3,1.3,0,0,1,.41.24,1.39,1.39,0,0,1,.28.39,1.15,1.15,0,0,1,.11.45,1.08,1.08,0,0,1-.07.47,1.14,1.14,0,0,1-.24.41,1.29,1.29,0,0,1-.38.28,1.26,1.26,0,0,1-.47.12,1.43,1.43,0,0,1-.46-.07,1.33,1.33,0,0,1-.41-.25,1.17,1.17,0,0,1-.28-.38,1,1,0,0,1-.11-.46,1.24,1.24,0,0,1,.06-.47,1.28,1.28,0,0,1,.25-.4A1.2,1.2,0,0,1,160,58.39Z"/><path class="cls-2" d="M169.24,54a1.25,1.25,0,0,1,.93,0,1.14,1.14,0,0,1,.41.24,1.29,1.29,0,0,1,.28.38,1.24,1.24,0,0,1,.11.46,1.08,1.08,0,0,1-.07.47,1.14,1.14,0,0,1-.24.41,1.49,1.49,0,0,1-.38.28,1.24,1.24,0,0,1-.46.11,1.08,1.08,0,0,1-.47-.07,1.14,1.14,0,0,1-.41-.24,1.29,1.29,0,0,1-.28-.38,1.25,1.25,0,0,1,0-.93,1.14,1.14,0,0,1,.24-.41A1.17,1.17,0,0,1,169.24,54Z"/><path class="cls-2" d="M178.48,49.69a1.25,1.25,0,0,1,.46-.12,1.49,1.49,0,0,1,.47.07,1.33,1.33,0,0,1,.41.25,1.17,1.17,0,0,1,.28.38,1.2,1.2,0,0,1,.11.46,1.08,1.08,0,0,1-.07.47,1.1,1.1,0,0,1-.24.4,1.14,1.14,0,0,1-.38.28,1.19,1.19,0,0,1-.93,0,1.52,1.52,0,0,1-.41-.24,1.21,1.21,0,0,1-.28-.39,1.22,1.22,0,0,1,0-.92,1.14,1.14,0,0,1,.24-.41A1.29,1.29,0,0,1,178.48,49.69Z"/><path class="cls-2" d="M187.72,45.34a1.16,1.16,0,0,1,.46-.12,1.43,1.43,0,0,1,.46.07,1.22,1.22,0,0,1,.41.25,1.17,1.17,0,0,1,.28.38,1.21,1.21,0,0,1,.12.46,1.53,1.53,0,0,1-.07.47,1.28,1.28,0,0,1-.25.4,1.17,1.17,0,0,1-.38.28,1.19,1.19,0,0,1-.93,0,1.28,1.28,0,0,1-.4-.25,1.1,1.1,0,0,1-.29-.38,1.41,1.41,0,0,1-.11-.46,1.2,1.2,0,0,1,.07-.46,1.38,1.38,0,0,1,.24-.41A1.21,1.21,0,0,1,187.72,45.34Z"/><path class="cls-2" d="M196.94,41a1.2,1.2,0,0,1,.46-.11,1.21,1.21,0,0,1,.87.31,1.14,1.14,0,0,1,.28.38,1.19,1.19,0,0,1,0,.93,1.33,1.33,0,0,1-.25.41,1.08,1.08,0,0,1-.38.28,1,1,0,0,1-.46.11,1.21,1.21,0,0,1-.87-.31,1.29,1.29,0,0,1-.28-.38,1.19,1.19,0,0,1-.05-.93,1.18,1.18,0,0,1,.25-.4A1.2,1.2,0,0,1,196.94,41Z"/><rect class="cls-2" x="205.33" y="36.25" width="2.6" height="2.89" transform="translate(3.64 91.66) rotate(-25.23)"/><g class="cls-18"><path class="cls-2" d="M206.2,36.63a1.25,1.25,0,0,1,.46-.12,1.49,1.49,0,0,1,.47.07,1.33,1.33,0,0,1,.41.25,1.17,1.17,0,0,1,.28.38,1,1,0,0,1,.11.46,1.08,1.08,0,0,1-.07.47,1.1,1.1,0,0,1-.24.4,1.14,1.14,0,0,1-.38.28,1.19,1.19,0,0,1-.93,0,1.3,1.3,0,0,1-.41-.24,1.21,1.21,0,0,1-.28-.39,1,1,0,0,1-.11-.45,1.06,1.06,0,0,1,.07-.47,1.14,1.14,0,0,1,.24-.41A1.29,1.29,0,0,1,206.2,36.63Z"/></g><rect class="cls-2" x="144.98" y="74.97" width="2.64" height="2.89" transform="translate(-18.62 69.64) rotate(-25.23)"/><g class="cls-19"><path class="cls-2" d="M145.71,75.35a1.21,1.21,0,0,1,.46-.12,1.25,1.25,0,0,1,.47.07,1.28,1.28,0,0,1,.4.25,1,1,0,0,1,.28.38,1.16,1.16,0,0,1,.12.46,1.2,1.2,0,0,1-.07.46,1.22,1.22,0,0,1-.25.41,1.08,1.08,0,0,1-.38.28,1.21,1.21,0,0,1-.46.12,1.53,1.53,0,0,1-.47-.07,1.28,1.28,0,0,1-.4-.25,1.17,1.17,0,0,1-.28-.38,1.21,1.21,0,0,1-.12-.46,1.16,1.16,0,0,1,.32-.87A1.17,1.17,0,0,1,145.71,75.35Z"/></g><path class="cls-2" d="M154.68,71.12a1,1,0,0,1,.46-.11,1.08,1.08,0,0,1,.47.07,1.1,1.1,0,0,1,.4.24,1,1,0,0,1,.28.38,1.19,1.19,0,0,1,.05.93,1.18,1.18,0,0,1-.25.4,1.1,1.1,0,0,1-.38.29,1.41,1.41,0,0,1-.46.11,1.21,1.21,0,0,1-.87-.31,1.29,1.29,0,0,1-.28-.38,1.19,1.19,0,0,1,0-.93,1.33,1.33,0,0,1,.25-.41A1.17,1.17,0,0,1,154.68,71.12Z"/><path class="cls-2" d="M163.94,66.76a1.25,1.25,0,0,1,.46-.12,1.49,1.49,0,0,1,.47.07,1.33,1.33,0,0,1,.41.25,1.21,1.21,0,0,1,.28.38,1.41,1.41,0,0,1,.11.46,1,1,0,0,1-.07.46,1.06,1.06,0,0,1-.24.41A1.21,1.21,0,0,1,165,69a1.16,1.16,0,0,1-.46.12,1.2,1.2,0,0,1-.46-.07,1.22,1.22,0,0,1-.41-.25,1.17,1.17,0,0,1-.28-.38,1.21,1.21,0,0,1-.12-.46,1.53,1.53,0,0,1,.07-.47,1.28,1.28,0,0,1,.25-.4A1.17,1.17,0,0,1,163.94,66.76Z"/><path class="cls-2" d="M173.18,62.4a1.47,1.47,0,0,1,.46-.11,1.25,1.25,0,0,1,.47.07,1.14,1.14,0,0,1,.41.24,1.49,1.49,0,0,1,.28.38,1.24,1.24,0,0,1,.11.46,1.08,1.08,0,0,1-.07.47,1.14,1.14,0,0,1-.24.41,1.29,1.29,0,0,1-.38.28,1.08,1.08,0,0,1-.47.11,1,1,0,0,1-.46-.07,1.14,1.14,0,0,1-.41-.24,1.17,1.17,0,0,1-.28-.38,1.25,1.25,0,0,1,0-.93,1.1,1.1,0,0,1,.24-.4A1.2,1.2,0,0,1,173.18,62.4Z"/><path class="cls-2" d="M182.42,58.05a1.25,1.25,0,0,1,.93,0,1.14,1.14,0,0,1,.41.24,1.34,1.34,0,0,1,.28.38,1.24,1.24,0,0,1,.11.46,1.08,1.08,0,0,1-.07.47,1.14,1.14,0,0,1-.24.41,1.49,1.49,0,0,1-.38.28,1.47,1.47,0,0,1-.46.11,1.06,1.06,0,0,1-.47-.07,1.14,1.14,0,0,1-.41-.24,1.29,1.29,0,0,1-.28-.38,1.25,1.25,0,0,1,0-.93,1.14,1.14,0,0,1,.24-.41A1.29,1.29,0,0,1,182.42,58.05Z"/><path class="cls-2" d="M191.66,53.7a1,1,0,0,1,.46-.11,1,1,0,0,1,.46.07,1.06,1.06,0,0,1,.41.24,1.17,1.17,0,0,1,.28.38,1.25,1.25,0,0,1,.12.46,1.49,1.49,0,0,1-.07.47,1.18,1.18,0,0,1-.25.4,1.2,1.2,0,0,1-.38.29,1.47,1.47,0,0,1-.46.11,1.08,1.08,0,0,1-.47-.07,1.15,1.15,0,0,1-.4-.24,1.33,1.33,0,0,1-.29-.38,1.25,1.25,0,0,1,0-.93,1.3,1.3,0,0,1,.24-.41A1.21,1.21,0,0,1,191.66,53.7Z"/><path class="cls-2" d="M200.88,49.36a1.21,1.21,0,0,1,.46-.12,1.16,1.16,0,0,1,.87.32,1.08,1.08,0,0,1,.28.38,1.16,1.16,0,0,1,.12.46,1.2,1.2,0,0,1-.07.46,1.22,1.22,0,0,1-.25.41,1.17,1.17,0,0,1-.38.28,1.21,1.21,0,0,1-.46.12,1.53,1.53,0,0,1-.47-.07,1.28,1.28,0,0,1-.4-.25,1,1,0,0,1-.28-.38,1.21,1.21,0,0,1-.12-.46,1.16,1.16,0,0,1,.32-.87A1,1,0,0,1,200.88,49.36Z"/><rect class="cls-2" x="209.3" y="44.68" width="2.6" height="2.89" transform="translate(0.43 94.15) rotate(-25.23)"/><g class="cls-20"><path class="cls-2" d="M210.14,45a1.25,1.25,0,0,1,.93,0,1.14,1.14,0,0,1,.41.24,1.17,1.17,0,0,1,.28.38,1.25,1.25,0,0,1,0,.93,1.14,1.14,0,0,1-.24.41,1.49,1.49,0,0,1-.38.28,1.47,1.47,0,0,1-.46.11,1.08,1.08,0,0,1-.47-.07,1.14,1.14,0,0,1-.41-.24,1.29,1.29,0,0,1-.28-.38,1.25,1.25,0,0,1,0-.93,1.14,1.14,0,0,1,.24-.41A1.29,1.29,0,0,1,210.14,45Z"/></g><rect class="cls-2" x="148.95" y="83.4" width="2.64" height="2.89" transform="translate(-21.83 72.13) rotate(-25.23)"/><g class="cls-21"><path class="cls-2" d="M149.65,83.71a1.21,1.21,0,0,1,.46-.12,1.28,1.28,0,0,1,.47.07,1.47,1.47,0,0,1,.4.24,1.21,1.21,0,0,1,.28.39,1.16,1.16,0,0,1,.12.45,1.2,1.2,0,0,1-.32.88,1.17,1.17,0,0,1-.38.28,1.25,1.25,0,0,1-.46.12,1.49,1.49,0,0,1-.47-.07,1.28,1.28,0,0,1-.4-.25,1.2,1.2,0,0,1-.29-.38,1.47,1.47,0,0,1-.11-.46,1.25,1.25,0,0,1,.07-.47,1.28,1.28,0,0,1,.25-.4A1,1,0,0,1,149.65,83.71Z"/></g><path class="cls-2" d="M158.62,79.48a1,1,0,0,1,.46-.11,1.27,1.27,0,0,1,.47.06,1.28,1.28,0,0,1,.4.25,1.17,1.17,0,0,1,.28.38,1.25,1.25,0,0,1,.12.46,1.49,1.49,0,0,1-.07.47,1.18,1.18,0,0,1-.25.4,1.2,1.2,0,0,1-.38.29,1.47,1.47,0,0,1-.46.11,1.25,1.25,0,0,1-.47-.07,1.15,1.15,0,0,1-.4-.24,1.33,1.33,0,0,1-.29-.38,1.47,1.47,0,0,1-.11-.46,1.22,1.22,0,0,1,.07-.47,1.33,1.33,0,0,1,.25-.41A1.08,1.08,0,0,1,158.62,79.48Z"/><path class="cls-2" d="M167.88,75.12a1.21,1.21,0,0,1,.46-.12,1.25,1.25,0,0,1,.47.07,1.28,1.28,0,0,1,.4.25,1,1,0,0,1,.28.38,1.16,1.16,0,0,1,.12.46,1.2,1.2,0,0,1-.07.46,1.22,1.22,0,0,1-.25.41,1.08,1.08,0,0,1-.38.28,1.21,1.21,0,0,1-.46.12,1.53,1.53,0,0,1-.47-.07,1.28,1.28,0,0,1-.4-.25,1.17,1.17,0,0,1-.28-.38,1.21,1.21,0,0,1-.12-.46,1.16,1.16,0,0,1,.32-.87A1.17,1.17,0,0,1,167.88,75.12Z"/><path class="cls-2" d="M177.12,70.76a1.2,1.2,0,0,1,.46-.11,1.08,1.08,0,0,1,.47.07,1.1,1.1,0,0,1,.4.24,1.14,1.14,0,0,1,.28.38,1.19,1.19,0,0,1,.05.93,1.33,1.33,0,0,1-.25.41,1.08,1.08,0,0,1-.38.28,1.22,1.22,0,0,1-.92,0,1.06,1.06,0,0,1-.41-.24,1.29,1.29,0,0,1-.28-.38,1.25,1.25,0,0,1-.12-.46,1.49,1.49,0,0,1,.07-.47,1.18,1.18,0,0,1,.25-.4A1.2,1.2,0,0,1,177.12,70.76Z"/><path class="cls-2" d="M186.36,66.41a1,1,0,0,1,.46-.11,1.08,1.08,0,0,1,.47.07,1.1,1.1,0,0,1,.4.24A1.2,1.2,0,0,1,188,67a1.47,1.47,0,0,1,.11.46,1.25,1.25,0,0,1-.07.47,1.28,1.28,0,0,1-.25.4,1.1,1.1,0,0,1-.38.29,1.41,1.41,0,0,1-.46.11,1.2,1.2,0,0,1-.46-.07,1.38,1.38,0,0,1-.41-.24,1.29,1.29,0,0,1-.28-.38,1.25,1.25,0,0,1-.12-.46,1.45,1.45,0,0,1,.07-.47,1.33,1.33,0,0,1,.25-.41A1.17,1.17,0,0,1,186.36,66.41Z"/><path class="cls-2" d="M195.59,62.06a1.07,1.07,0,0,1,.46-.11,1.22,1.22,0,0,1,.47.06,1.33,1.33,0,0,1,.41.25,1.17,1.17,0,0,1,.28.38,1.25,1.25,0,0,1,0,.93,1.1,1.1,0,0,1-.24.4,1.14,1.14,0,0,1-.38.28,1.19,1.19,0,0,1-.93,0,1.33,1.33,0,0,1-.41-.25,1.13,1.13,0,0,1-.28-.37,1.24,1.24,0,0,1-.11-.46,1.06,1.06,0,0,1,.07-.47,1.14,1.14,0,0,1,.24-.41A1.29,1.29,0,0,1,195.59,62.06Z"/><path class="cls-2" d="M204.82,57.72a1.16,1.16,0,0,1,.46-.12,1.2,1.2,0,0,1,.46.07,1.38,1.38,0,0,1,.41.24,1.21,1.21,0,0,1,.28.39,1.16,1.16,0,0,1,.12.45,1.45,1.45,0,0,1-.07.47,1.33,1.33,0,0,1-.25.41,1.17,1.17,0,0,1-.38.28,1.13,1.13,0,0,1-.93,0,1.14,1.14,0,0,1-.41-.24,1.34,1.34,0,0,1-.28-.38,1.47,1.47,0,0,1-.11-.46,1.08,1.08,0,0,1,.07-.47,1.25,1.25,0,0,1,.24-.4A1.08,1.08,0,0,1,204.82,57.72Z"/><rect class="cls-2" x="213.27" y="53.11" width="2.6" height="2.89" transform="translate(-2.79 96.65) rotate(-25.23)"/><g class="cls-22"><path class="cls-2" d="M214.08,53.35a1.07,1.07,0,0,1,.46-.11,1.24,1.24,0,0,1,.47.06,1.23,1.23,0,0,1,.69.63,1.25,1.25,0,0,1,0,.93,1.15,1.15,0,0,1-.24.4,1.24,1.24,0,0,1-.39.29,1.35,1.35,0,0,1-.45.11,1.25,1.25,0,0,1-.47-.07,1.2,1.2,0,0,1-.41-.24,1.29,1.29,0,0,1-.28-.38,1.25,1.25,0,0,1-.12-.46,1.45,1.45,0,0,1,.07-.47,1.33,1.33,0,0,1,.25-.41A1.17,1.17,0,0,1,214.08,53.35Z"/></g><rect class="cls-2" x="152.86" y="91.85" width="2.64" height="2.57" transform="translate(-24.99 74.59) rotate(-25.23)"/><g class="cls-23"><path class="cls-2" d="M153.58,92.06A1.47,1.47,0,0,1,154,92a1.25,1.25,0,0,1,.47.07,1.06,1.06,0,0,1,.41.24,1.21,1.21,0,0,1,.28.39,1,1,0,0,1,.11.45,1.08,1.08,0,0,1-.07.47A1.14,1.14,0,0,1,155,94a1.29,1.29,0,0,1-.38.28,1.13,1.13,0,0,1-.93,0,1.14,1.14,0,0,1-.41-.24,1.17,1.17,0,0,1-.28-.38,1.24,1.24,0,0,1-.11-.46,1.08,1.08,0,0,1,.07-.47,1.25,1.25,0,0,1,.24-.4A1.33,1.33,0,0,1,153.58,92.06Z"/></g><path class="cls-2" d="M162.55,87.84a1.25,1.25,0,0,1,.46-.12,1.49,1.49,0,0,1,.47.07,1.33,1.33,0,0,1,.41.25,1.17,1.17,0,0,1,.28.38,1,1,0,0,1,.11.46,1.21,1.21,0,0,1-.31.87,1.14,1.14,0,0,1-.38.28,1.19,1.19,0,0,1-.93,0,1.33,1.33,0,0,1-.41-.25,1.08,1.08,0,0,1-.28-.38,1.15,1.15,0,0,1-.11-.45,1.06,1.06,0,0,1,.07-.47,1.14,1.14,0,0,1,.24-.41A1.29,1.29,0,0,1,162.55,87.84Z"/><path class="cls-2" d="M171.82,83.47a1.41,1.41,0,0,1,.46-.11,1.2,1.2,0,0,1,.46.07,1.38,1.38,0,0,1,.41.24,1.21,1.21,0,0,1,.28.39,1.16,1.16,0,0,1,.12.45,1.45,1.45,0,0,1-.07.47,1.22,1.22,0,0,1-.25.41,1.17,1.17,0,0,1-.38.28,1.25,1.25,0,0,1-.46.12,1.49,1.49,0,0,1-.47-.07,1.28,1.28,0,0,1-.4-.25,1.2,1.2,0,0,1-.29-.38,1.47,1.47,0,0,1-.11-.46,1.25,1.25,0,0,1,.07-.47,1.47,1.47,0,0,1,.24-.4A1.24,1.24,0,0,1,171.82,83.47Z"/><path class="cls-2" d="M181.06,79.12a1.2,1.2,0,0,1,.46-.11,1.21,1.21,0,0,1,.87.31,1.29,1.29,0,0,1,.28.38,1.19,1.19,0,0,1,.05.93,1.33,1.33,0,0,1-.25.41,1.17,1.17,0,0,1-.38.28,1.24,1.24,0,0,1-.46.11,1.08,1.08,0,0,1-.47-.07,1.1,1.1,0,0,1-.4-.24,1.14,1.14,0,0,1-.28-.38,1.19,1.19,0,0,1,0-.93,1.33,1.33,0,0,1,.25-.41A1.21,1.21,0,0,1,181.06,79.12Z"/><path class="cls-2" d="M190.3,74.77a1.21,1.21,0,0,1,.46-.12,1.53,1.53,0,0,1,.47.07,1.28,1.28,0,0,1,.4.25,1,1,0,0,1,.28.38,1.21,1.21,0,0,1,.12.46,1.16,1.16,0,0,1-.32.87,1,1,0,0,1-.38.28,1.21,1.21,0,0,1-.46.12,1.25,1.25,0,0,1-.47-.07,1.28,1.28,0,0,1-.4-.25,1,1,0,0,1-.28-.38,1.16,1.16,0,0,1-.12-.46,1.2,1.2,0,0,1,.07-.46,1.33,1.33,0,0,1,.25-.41A1.08,1.08,0,0,1,190.3,74.77Z"/><path class="cls-2" d="M199.53,70.42a1.25,1.25,0,0,1,.46-.12,1.49,1.49,0,0,1,.47.07,1.33,1.33,0,0,1,.41.25,1.17,1.17,0,0,1,.28.38,1.2,1.2,0,0,1,.11.46,1.21,1.21,0,0,1-.31.87,1.29,1.29,0,0,1-.38.28,1.19,1.19,0,0,1-.93,0,1.33,1.33,0,0,1-.41-.25A1.08,1.08,0,0,1,199,72a1.22,1.22,0,0,1,0-.92,1.14,1.14,0,0,1,.24-.41A1.29,1.29,0,0,1,199.53,70.42Z"/><path class="cls-2" d="M208.75,66.07a1.47,1.47,0,0,1,.46-.11,1.25,1.25,0,0,1,.47.07,1.14,1.14,0,0,1,.41.24,1.29,1.29,0,0,1,.28.38,1.25,1.25,0,0,1,0,.93,1.14,1.14,0,0,1-.24.41,1.29,1.29,0,0,1-.38.28,1.25,1.25,0,0,1-.93,0,1.14,1.14,0,0,1-.41-.24,1.17,1.17,0,0,1-.28-.38,1.25,1.25,0,0,1,0-.93,1,1,0,0,1,.24-.4A1.33,1.33,0,0,1,208.75,66.07Z"/><rect class="cls-2" x="217.18" y="61.56" width="2.6" height="2.57" transform="translate(-5.95 99.1) rotate(-25.23)"/><g class="cls-24"><path class="cls-2" d="M218,61.71a1.21,1.21,0,0,1,.46-.12,1.49,1.49,0,0,1,.47.07,1.28,1.28,0,0,1,.4.25,1.2,1.2,0,0,1,.29.38,1.41,1.41,0,0,1,.11.46,1.25,1.25,0,0,1-.07.47,1.28,1.28,0,0,1-.25.4,1,1,0,0,1-.38.28,1.21,1.21,0,0,1-.46.12,1.16,1.16,0,0,1-.87-.32,1.08,1.08,0,0,1-.28-.38,1.16,1.16,0,0,1-.12-.45,1.45,1.45,0,0,1,.07-.47,1.33,1.33,0,0,1,.25-.41A1.17,1.17,0,0,1,218,61.71Z"/></g><rect class="cls-2" x="156.76" y="99.97" width="2.64" height="2.89" transform="translate(-28.15 77.04) rotate(-25.23)"/><g class="cls-25"><path class="cls-2" d="M157.52,100.42a1.24,1.24,0,0,1,.46-.11,1.08,1.08,0,0,1,.47.07,1.14,1.14,0,0,1,.41.24,1.29,1.29,0,0,1,.28.38,1.25,1.25,0,0,1,0,.93,1.14,1.14,0,0,1-.24.41,1.29,1.29,0,0,1-.38.28,1.25,1.25,0,0,1-.93,0,1.14,1.14,0,0,1-.41-.24,1.29,1.29,0,0,1-.28-.38,1.25,1.25,0,0,1,0-.93,1,1,0,0,1,.24-.4A1.33,1.33,0,0,1,157.52,100.42Z"/></g><path class="cls-2" d="M166.49,96.2a1.25,1.25,0,0,1,.46-.12,1.49,1.49,0,0,1,.47.07,1.33,1.33,0,0,1,.41.25,1.17,1.17,0,0,1,.28.38,1.2,1.2,0,0,1,.11.46,1.21,1.21,0,0,1-.31.87,1.29,1.29,0,0,1-.38.28,1.25,1.25,0,0,1-.46.12,1.22,1.22,0,0,1-.47-.07,1.33,1.33,0,0,1-.41-.25,1.08,1.08,0,0,1-.28-.38,1.22,1.22,0,0,1,0-.92,1.06,1.06,0,0,1,.24-.41A1.29,1.29,0,0,1,166.49,96.2Z"/><path class="cls-2" d="M175.75,91.83a1.47,1.47,0,0,1,.46-.11,1.06,1.06,0,0,1,.47.07,1.14,1.14,0,0,1,.41.24,1.29,1.29,0,0,1,.28.38,1.25,1.25,0,0,1,0,.93,1.14,1.14,0,0,1-.24.41,1.29,1.29,0,0,1-.38.28,1.25,1.25,0,0,1-.93,0,1.14,1.14,0,0,1-.41-.24,1.34,1.34,0,0,1-.28-.38,1.24,1.24,0,0,1-.11-.46,1.08,1.08,0,0,1,.07-.47,1.25,1.25,0,0,1,.24-.4A1.33,1.33,0,0,1,175.75,91.83Z"/><path class="cls-2" d="M185,87.48a1,1,0,0,1,.45-.11,1.25,1.25,0,0,1,.88.31,1.29,1.29,0,0,1,.28.38,1.13,1.13,0,0,1,0,.93,1.23,1.23,0,0,1-.24.41,1.49,1.49,0,0,1-.38.28,1.24,1.24,0,0,1-.46.11,1.08,1.08,0,0,1-.47-.07,1.14,1.14,0,0,1-.41-.24,1.49,1.49,0,0,1-.28-.38,1.24,1.24,0,0,1-.11-.46,1.08,1.08,0,0,1,.07-.47,1.3,1.3,0,0,1,.24-.41A1.21,1.21,0,0,1,185,87.48Z"/><path class="cls-2" d="M194.24,83.13a1.16,1.16,0,0,1,.46-.12,1.43,1.43,0,0,1,.46.07,1.22,1.22,0,0,1,.41.25,1.17,1.17,0,0,1,.28.38,1.21,1.21,0,0,1,.12.46,1.53,1.53,0,0,1-.07.47,1.26,1.26,0,0,1-.63.68,1.25,1.25,0,0,1-.46.12,1.49,1.49,0,0,1-.47-.07,1.33,1.33,0,0,1-.41-.25,1.21,1.21,0,0,1-.28-.38,1.2,1.2,0,0,1-.11-.46,1.28,1.28,0,0,1,.07-.47,1.25,1.25,0,0,1,.24-.4A1.21,1.21,0,0,1,194.24,83.13Z"/><path class="cls-2" d="M203.47,78.78a1.25,1.25,0,0,1,.46-.12,1.49,1.49,0,0,1,.47.07,1.18,1.18,0,0,1,.4.25,1.1,1.1,0,0,1,.29.38,1.41,1.41,0,0,1,.11.46,1.28,1.28,0,0,1-.07.47,1.47,1.47,0,0,1-.24.4,1.21,1.21,0,0,1-.39.28,1.16,1.16,0,0,1-.46.12,1.53,1.53,0,0,1-.47-.07,1.28,1.28,0,0,1-.4-.25,1.17,1.17,0,0,1-.28-.38,1.21,1.21,0,0,1-.12-.46,1.43,1.43,0,0,1,.07-.46,1.22,1.22,0,0,1,.25-.41A1.17,1.17,0,0,1,203.47,78.78Z"/><path class="cls-2" d="M212.69,74.43a1.24,1.24,0,0,1,.46-.11,1.08,1.08,0,0,1,.47.07,1.14,1.14,0,0,1,.41.24,1.49,1.49,0,0,1,.28.38,1.24,1.24,0,0,1,.11.46,1.08,1.08,0,0,1-.07.47,1.17,1.17,0,0,1-.62.69,1.25,1.25,0,0,1-.93,0,1.06,1.06,0,0,1-.41-.24,1.29,1.29,0,0,1-.28-.38,1.25,1.25,0,0,1,0-.93,1,1,0,0,1,.24-.4A1.33,1.33,0,0,1,212.69,74.43Z"/><rect class="cls-2" x="221.08" y="69.68" width="2.6" height="2.89" transform="translate(-9.11 101.56) rotate(-25.23)"/><g class="cls-26"><path class="cls-2" d="M222,70.07a1.21,1.21,0,0,1,.46-.12,1.53,1.53,0,0,1,.47.07,1.28,1.28,0,0,1,.4.25,1.17,1.17,0,0,1,.28.38,1.21,1.21,0,0,1,.12.46,1.53,1.53,0,0,1-.07.47,1.28,1.28,0,0,1-.25.4,1.17,1.17,0,0,1-.38.28,1.21,1.21,0,0,1-.46.12,1.49,1.49,0,0,1-.47-.07,1.28,1.28,0,0,1-.4-.25,1,1,0,0,1-.28-.38,1.17,1.17,0,0,1,0-.92,1.22,1.22,0,0,1,.25-.41A1.08,1.08,0,0,1,222,70.07Z"/></g><rect class="cls-2" x="160.73" y="108.41" width="2.64" height="2.89" transform="translate(-31.36 79.54) rotate(-25.23)"/><g class="cls-27"><path class="cls-2" d="M161.46,108.78a1.24,1.24,0,0,1,.46-.11,1.08,1.08,0,0,1,.47.07,1.14,1.14,0,0,1,.41.24,1.49,1.49,0,0,1,.28.38,1.47,1.47,0,0,1,.11.46,1.08,1.08,0,0,1-.07.47,1.17,1.17,0,0,1-.62.69,1.08,1.08,0,0,1-.47.11,1,1,0,0,1-.46-.07,1.06,1.06,0,0,1-.41-.24,1.29,1.29,0,0,1-.28-.38,1.25,1.25,0,0,1-.12-.46,1.49,1.49,0,0,1,.07-.47,1.23,1.23,0,0,1,.63-.69Z"/></g><path class="cls-2" d="M170.43,104.56a1.19,1.19,0,0,1,.93,0,1.18,1.18,0,0,1,.4.25,1.1,1.1,0,0,1,.29.38,1.41,1.41,0,0,1,.11.46,1.25,1.25,0,0,1-.31.87,1.21,1.21,0,0,1-.39.28,1.16,1.16,0,0,1-.46.12,1.43,1.43,0,0,1-.46-.07,1.22,1.22,0,0,1-.41-.25,1.17,1.17,0,0,1-.28-.38,1.21,1.21,0,0,1-.12-.46,1.53,1.53,0,0,1,.07-.47,1.28,1.28,0,0,1,.25-.4A1.17,1.17,0,0,1,170.43,104.56Z"/><path class="cls-2" d="M179.69,100.19a1.24,1.24,0,0,1,.46-.11,1.08,1.08,0,0,1,.47.07,1.14,1.14,0,0,1,.41.24,1.29,1.29,0,0,1,.28.38,1.25,1.25,0,0,1,0,.93,1.14,1.14,0,0,1-.24.41,1.29,1.29,0,0,1-.38.28,1.25,1.25,0,0,1-.93,0,1.14,1.14,0,0,1-.41-.24,1.29,1.29,0,0,1-.28-.38,1.25,1.25,0,0,1,0-.93,1,1,0,0,1,.24-.4A1.33,1.33,0,0,1,179.69,100.19Z"/><path class="cls-2" d="M188.93,95.84a1.25,1.25,0,0,1,.93,0,1.14,1.14,0,0,1,.41.24,1.17,1.17,0,0,1,.28.38,1.25,1.25,0,0,1,0,.93,1.1,1.1,0,0,1-.24.4A1.33,1.33,0,0,1,190,98a1.47,1.47,0,0,1-.46.11,1.25,1.25,0,0,1-.47-.07,1.17,1.17,0,0,1-.69-.62,1.07,1.07,0,0,1-.11-.46,1.06,1.06,0,0,1,.07-.47,1.14,1.14,0,0,1,.24-.41A1.29,1.29,0,0,1,188.93,95.84Z"/><path class="cls-2" d="M198.17,91.49a1.19,1.19,0,0,1,.93,0,1.33,1.33,0,0,1,.41.25,1.08,1.08,0,0,1,.28.38,1.22,1.22,0,0,1,0,.92,1.06,1.06,0,0,1-.24.41,1.29,1.29,0,0,1-.38.28,1.25,1.25,0,0,1-.46.12,1.49,1.49,0,0,1-.47-.07,1.33,1.33,0,0,1-.41-.25,1.17,1.17,0,0,1-.28-.38,1,1,0,0,1-.11-.46,1.21,1.21,0,0,1,.31-.87A1.29,1.29,0,0,1,198.17,91.49Z"/><path class="cls-2" d="M207.41,87.14a1.21,1.21,0,0,1,.46-.12,1.16,1.16,0,0,1,.87.32,1.08,1.08,0,0,1,.28.38,1.16,1.16,0,0,1,.12.46,1.2,1.2,0,0,1-.07.46,1.22,1.22,0,0,1-.25.41,1.17,1.17,0,0,1-.38.28,1.21,1.21,0,0,1-.46.12,1.49,1.49,0,0,1-.47-.07,1.28,1.28,0,0,1-.4-.25,1,1,0,0,1-.28-.38,1.21,1.21,0,0,1-.12-.46,1.16,1.16,0,0,1,.32-.87A1.17,1.17,0,0,1,207.41,87.14Z"/><path class="cls-2" d="M216.63,82.79a1.24,1.24,0,0,1,.46-.11,1.08,1.08,0,0,1,.47.07,1.1,1.1,0,0,1,.4.24,1.33,1.33,0,0,1,.29.38,1.47,1.47,0,0,1,.11.46,1.25,1.25,0,0,1-.07.47,1.3,1.3,0,0,1-.24.41,1.21,1.21,0,0,1-.39.28,1.15,1.15,0,0,1-.46.11,1.21,1.21,0,0,1-.87-.31,1.29,1.29,0,0,1-.28-.38,1.25,1.25,0,0,1-.12-.46,1.49,1.49,0,0,1,.07-.47,1.33,1.33,0,0,1,.25-.41A1.17,1.17,0,0,1,216.63,82.79Z"/><rect class="cls-2" x="225.05" y="78.11" width="2.6" height="2.89" transform="translate(-12.32 104.05) rotate(-25.23)"/><g class="cls-28"><path class="cls-2" d="M225.89,78.43a1.26,1.26,0,0,1,.47-.12,1.43,1.43,0,0,1,.46.07,1.33,1.33,0,0,1,.41.25,1.08,1.08,0,0,1,.28.38,1,1,0,0,1,.11.46,1.19,1.19,0,0,1-.06.46,1.22,1.22,0,0,1-.25.41,1.17,1.17,0,0,1-.38.28,1.25,1.25,0,0,1-.46.12,1.49,1.49,0,0,1-.47-.07,1.33,1.33,0,0,1-.41-.25,1.17,1.17,0,0,1-.28-.38,1.2,1.2,0,0,1-.11-.46,1.1,1.1,0,0,1,.07-.47,1.25,1.25,0,0,1,.24-.4A1.29,1.29,0,0,1,225.89,78.43Z"/></g><rect class="cls-2" x="164.64" y="116.85" width="2.64" height="2.57" transform="translate(-34.52 81.99) rotate(-25.23)"/><g class="cls-29"><path class="cls-2" d="M165.4,117.14a1.2,1.2,0,0,1,.46-.11,1.21,1.21,0,0,1,.87.31,1.14,1.14,0,0,1,.28.38,1.19,1.19,0,0,1,.05.93,1.18,1.18,0,0,1-.25.4,1.1,1.1,0,0,1-.38.29,1.2,1.2,0,0,1-.46.11,1.21,1.21,0,0,1-.87-.31,1.29,1.29,0,0,1-.28-.38,1.19,1.19,0,0,1,0-.93,1.33,1.33,0,0,1,.25-.41A1.17,1.17,0,0,1,165.4,117.14Z"/></g><rect class="cls-2" x="173.41" y="112.66" width="2.89" height="2.57" transform="translate(-31.89 85.39) rotate(-25.23)"/><g class="cls-30"><path class="cls-2" d="M174.37,112.92a1.21,1.21,0,0,1,.46-.12,1.16,1.16,0,0,1,.87.32,1,1,0,0,1,.28.38,1.16,1.16,0,0,1,.12.45,1.2,1.2,0,0,1-.32.88,1.08,1.08,0,0,1-.38.28,1.21,1.21,0,0,1-.46.12,1.53,1.53,0,0,1-.47-.07,1.28,1.28,0,0,1-.4-.25,1.17,1.17,0,0,1-.28-.38,1.25,1.25,0,0,1-.12-.46,1.16,1.16,0,0,1,.32-.87A1,1,0,0,1,174.37,112.92Z"/></g><rect class="cls-2" x="182.71" y="108.28" width="2.89" height="2.57" transform="translate(-29.13 88.93) rotate(-25.23)"/><g class="cls-31"><path class="cls-2" d="M183.63,108.55a1.24,1.24,0,0,1,.46-.11,1.08,1.08,0,0,1,.47.07,1.14,1.14,0,0,1,.41.24,1.49,1.49,0,0,1,.28.38,1.47,1.47,0,0,1,.11.46,1.25,1.25,0,0,1-.07.47,1.3,1.3,0,0,1-.24.41,1.21,1.21,0,0,1-.39.28,1.15,1.15,0,0,1-.46.11,1,1,0,0,1-.46-.07,1.06,1.06,0,0,1-.41-.24,1.29,1.29,0,0,1-.28-.38,1.25,1.25,0,0,1-.12-.46,1.49,1.49,0,0,1,.07-.47,1.23,1.23,0,0,1,.63-.69Z"/></g><rect class="cls-2" x="192.03" y="103.96" width="2.57" height="2.57" transform="translate(-26.42 92.42) rotate(-25.23)"/><g class="cls-32"><path class="cls-2" d="M192.87,104.2a1.25,1.25,0,0,1,.46-.12,1.49,1.49,0,0,1,.47.07,1.23,1.23,0,0,1,.69.63,1.24,1.24,0,0,1,.11.46,1.1,1.1,0,0,1-.07.47,1.25,1.25,0,0,1-.24.4,1.14,1.14,0,0,1-.38.28,1.26,1.26,0,0,1-.47.12,1.2,1.2,0,0,1-.46-.07,1.22,1.22,0,0,1-.41-.25,1.08,1.08,0,0,1-.28-.38,1,1,0,0,1-.11-.45,1.25,1.25,0,0,1,.31-.88A1.17,1.17,0,0,1,192.87,104.2Z"/></g><rect class="cls-2" x="201.33" y="99.58" width="2.57" height="2.57" transform="translate(-23.66 95.97) rotate(-25.23)"/><g class="cls-33"><path class="cls-2" d="M202.11,99.85a1.19,1.19,0,0,1,.93,0,1.33,1.33,0,0,1,.41.25,1.21,1.21,0,0,1,.28.38,1.15,1.15,0,0,1,.11.45,1.25,1.25,0,0,1-.31.88,1.29,1.29,0,0,1-.38.28,1.07,1.07,0,0,1-.46.11,1.22,1.22,0,0,1-.47-.06,1.33,1.33,0,0,1-.41-.25,1.17,1.17,0,0,1-.28-.38,1,1,0,0,1-.11-.46,1.21,1.21,0,0,1,.31-.87A1.14,1.14,0,0,1,202.11,99.85Z"/></g><rect class="cls-2" x="210.33" y="95.27" width="2.89" height="2.57" transform="translate(-20.95 99.46) rotate(-25.23)"/><g class="cls-34"><path class="cls-2" d="M211.35,95.5a1.16,1.16,0,0,1,.46-.12,1.2,1.2,0,0,1,.46.07,1.38,1.38,0,0,1,.41.24,1.21,1.21,0,0,1,.28.39,1.16,1.16,0,0,1,.12.45A1.45,1.45,0,0,1,213,97a1.22,1.22,0,0,1-.25.41,1.17,1.17,0,0,1-.38.28,1.07,1.07,0,0,1-.46.11,1.24,1.24,0,0,1-.47-.06,1.18,1.18,0,0,1-.4-.25,1.2,1.2,0,0,1-.29-.38,1.25,1.25,0,0,1,0-.93,1.25,1.25,0,0,1,.24-.4A1.08,1.08,0,0,1,211.35,95.5Z"/></g><rect class="cls-2" x="219.64" y="90.88" width="2.89" height="2.57" transform="translate(-18.2 103.01) rotate(-25.23)"/><g class="cls-35"><path class="cls-2" d="M220.57,91.15A1,1,0,0,1,221,91a1.21,1.21,0,0,1,.87.31,1.17,1.17,0,0,1,.28.38,1.19,1.19,0,0,1,0,.93,1.18,1.18,0,0,1-.25.4,1.2,1.2,0,0,1-.38.29,1.41,1.41,0,0,1-.46.11,1.08,1.08,0,0,1-.47-.07,1.1,1.1,0,0,1-.4-.24,1.14,1.14,0,0,1-.28-.38,1.19,1.19,0,0,1-.05-.93,1.33,1.33,0,0,1,.25-.41A1.17,1.17,0,0,1,220.57,91.15Z"/></g><rect class="cls-2" x="228.95" y="86.56" width="2.6" height="2.57" transform="translate(-15.48 106.51) rotate(-25.23)"/><g class="cls-36"><path class="cls-2" d="M229.83,86.79a1.19,1.19,0,0,1,.93-.05,1.33,1.33,0,0,1,.41.25,1.08,1.08,0,0,1,.28.38,1,1,0,0,1,.11.46,1,1,0,0,1-.07.46,1.06,1.06,0,0,1-.24.41,1.29,1.29,0,0,1-.38.28,1.25,1.25,0,0,1-.46.12,1.49,1.49,0,0,1-.47-.07,1.33,1.33,0,0,1-.41-.25,1.17,1.17,0,0,1-.28-.38,1,1,0,0,1-.11-.46,1.21,1.21,0,0,1,.31-.87A1.14,1.14,0,0,1,229.83,86.79Z"/></g></g></g><rect x="48.47" y="26.76" width="108" height="2.17"/></g></g></svg>