<svg xmlns="http://www.w3.org/2000/svg" viewBox="0 0 41.05 12.2"><defs><style>.cls-1,.cls-3{fill:#fff;}.cls-1,.cls-2{fill-rule:evenodd;}.cls-2{fill:#dad947;}</style></defs><g id="Capa_2" data-name="Capa 2"><g id="Capa_1-2" data-name="Capa 1"><path class="cls-1" d="M13.44,12a.85.85,0,0,1-.61.21H11.09a.73.73,0,0,1-.81-.81V5.09a.81.81,0,0,1,.21-.6.81.81,0,0,1,.6-.21h1.74a.85.85,0,0,1,.61.21.78.78,0,0,1,.22.6v6.3A.78.78,0,0,1,13.44,12Z"/><path class="cls-1" d="M.21,3.16A.84.84,0,0,1,0,2.55V.81A.84.84,0,0,1,.21.21.84.84,0,0,1,.81,0H8.4A.81.81,0,0,1,9,.21a.85.85,0,0,1,.22.6V2.55A.84.84,0,0,1,9,3.16a.78.78,0,0,1-.6.22H6.69c-.27,0-.39.15-.39.42v7.59a.78.78,0,0,1-.22.6.85.85,0,0,1-.61.21H3.73a.81.81,0,0,1-.6-.21.81.81,0,0,1-.21-.6V3.81a.38.38,0,0,0-.37-.43H.81A.79.79,0,0,1,.21,3.16Z"/><path class="cls-1" d="M23.59,12.09a.86.86,0,0,1-.38.07H21.09a1.1,1.1,0,0,1-.62-.18,1.28,1.28,0,0,1-.43-.51L18.92,9.18C18.85,9,18.8,9,18.65,9H15.9a.84.84,0,0,1-.6-.21h0a.84.84,0,0,1-.21-.6V6.44a.81.81,0,0,1,.21-.6h0a.81.81,0,0,1,.6-.22h1c.12,0,.19-.12.13-.3L14.91.93a.7.7,0,0,1-.06-.65A.58.58,0,0,1,15.43,0h2.12a1.11,1.11,0,0,1,.63.18,1.26,1.26,0,0,1,.44.52c.87,1.78,1.71,3.5,2.54,5.22S23,9.66,23.75,11.23a1.09,1.09,0,0,1,.11.42.48.48,0,0,1-.07.26A.58.58,0,0,1,23.59,12.09Z"/><path class="cls-2" d="M13.44,3.17a.85.85,0,0,1-.61.21H11.09a.78.78,0,0,1-.6-.22h0a.8.8,0,0,1-.21-.59V.81a.8.8,0,0,1,.21-.59h0a.81.81,0,0,1,.6-.21h1.74a.85.85,0,0,1,.61.21.79.79,0,0,1,.22.6V2.57A.81.81,0,0,1,13.44,3.17Z"/><path class="cls-2" d="M40.83,4.21a.82.82,0,0,1,.22.61V7.11a.76.76,0,0,1-.82.82H23.91a.81.81,0,0,1-.59-.22c-.05,0-1.09-2.25-1.25-2.55-.25-.57-.1-.8.05-1a.82.82,0,0,1,.6-.22H40.23A.82.82,0,0,1,40.83,4.21Z"/><path class="cls-3" d="M22.15.94a.05.05,0,0,1,.06-.06h1.24s.06,0,.05.06l0,.14a.07.07,0,0,1-.07.06h-.48L22.56,3.2s0,0-.06,0h-.16s-.06,0-.05,0l.36-2.06h-.48s-.05,0-.05-.06Z"/><path class="cls-3" d="M23.89,2.16,23.74,3h.84s.06,0,.05,0l0,.14s0,.06-.06.06H23.48s-.06,0-.05,0l.4-2.26a.06.06,0,0,1,.06-.06h1.05s.06,0,0,.06l0,.14a.05.05,0,0,1-.06.06h-.84l-.13.78h.81s0,0,0,.05l0,.14s0,.05-.06.05Z"/><path class="cls-3" d="M26.22,3s.05,0,.06,0v.13s0,0-.05.07a1,1,0,0,1-.44.09q-.75,0-.75-.78a2.29,2.29,0,0,1,0-.43,1.84,1.84,0,0,1,.37-.93.93.93,0,0,1,.71-.29,1,1,0,0,1,.45.09,0,0,0,0,1,0,.06l-.07.13a.05.05,0,0,1-.07,0,.75.75,0,0,0-.86.16,1.58,1.58,0,0,0-.28.74,2.41,2.41,0,0,0,0,.4.57.57,0,0,0,.13.42.52.52,0,0,0,.4.14A.94.94,0,0,0,26.22,3Z"/><path class="cls-3" d="M28.15,3.2s0,0-.06,0h-.16s-.06,0-.06,0l-.64-1.82L26.91,3.2a.06.06,0,0,1-.06,0h-.16s-.05,0-.05,0L27,.94a.07.07,0,0,1,.07-.06h.15a.07.07,0,0,1,.07,0L28,2.74l.31-1.8s0-.06.06-.06h.17s0,0,0,.05Z"/><path class="cls-3" d="M30.49,1.62a2,2,0,0,1,0,.45,1.88,1.88,0,0,1-.36.92.83.83,0,0,1-.66.29c-.47,0-.71-.26-.71-.78a2.37,2.37,0,0,1,0-.43,2,2,0,0,1,.37-.93.86.86,0,0,1,.67-.29C30.26.85,30.49,1.1,30.49,1.62ZM29.9,2.8a1.58,1.58,0,0,0,.26-.73,2.58,2.58,0,0,0,.05-.43c0-.36-.15-.54-.44-.54a.58.58,0,0,0-.47.23,1.69,1.69,0,0,0-.27.74,2.27,2.27,0,0,0,0,.42c0,.36.15.54.44.54A.58.58,0,0,0,29.9,2.8Z"/><path class="cls-3" d="M31,3h.8s0,0,0,0l0,.16a.06.06,0,0,1-.06,0h-1s-.05,0,0,0L31,.94a.07.07,0,0,1,.07-.06h.16s.06,0,.05.06Z"/><path class="cls-3" d="M33.9,1.62a2.74,2.74,0,0,1,0,.45A2.1,2.1,0,0,1,33.5,3a.86.86,0,0,1-.67.29c-.47,0-.71-.26-.71-.78a3.82,3.82,0,0,1,0-.43,2,2,0,0,1,.37-.93A.86.86,0,0,1,33.2.85C33.67.85,33.9,1.1,33.9,1.62ZM33.31,2.8a1.69,1.69,0,0,0,.27-.73,2.45,2.45,0,0,0,0-.43c0-.36-.15-.54-.44-.54a.58.58,0,0,0-.47.23,1.84,1.84,0,0,0-.26.74,2.37,2.37,0,0,0-.05.42c0,.36.15.54.44.54A.58.58,0,0,0,33.31,2.8Z"/><path class="cls-3" d="M35.72,1.88s.05,0,0,.06l-.2,1.12a.13.13,0,0,1-.07.1,1.08,1.08,0,0,1-.54.12.82.82,0,0,1-.6-.19.72.72,0,0,1-.21-.58,2.68,2.68,0,0,1,0-.45,1.68,1.68,0,0,1,.39-.93,1,1,0,0,1,.76-.28,1.08,1.08,0,0,1,.48.09s0,0,0,.07l-.06.13s0,.05-.08,0a.91.91,0,0,0-.37-.08.74.74,0,0,0-.59.22,1.48,1.48,0,0,0-.28.74,2.87,2.87,0,0,0,0,.42.56.56,0,0,0,.14.42A.61.61,0,0,0,35,3,.86.86,0,0,0,35.31,3l.15-.84h-.39s0,0,0,0V1.94a.07.07,0,0,1,.07-.06Z"/><path class="cls-3" d="M36.4.94a.07.07,0,0,1,.07-.06h.16s.06,0,0,.06l-.4,2.26a.06.06,0,0,1-.06,0h-.17s0,0,0,0ZM36.7.4a.1.1,0,0,1,.08-.05H37l0,0a.05.05,0,0,1,0,0l-.33.28a.09.09,0,0,1-.07,0h-.1s0,0,0,0a0,0,0,0,1,0,0Z"/><path class="cls-3" d="M38,.88a.06.06,0,0,1,0,0s0,0,0,0l.28,2.25s0,.06-.05.06h-.17s-.06,0-.06,0L38,2.63h-.82l-.27.57s0,0-.07,0h-.18s0,0,0-.06L37.7.94a.09.09,0,0,1,.08-.06Zm0,1.5-.12-1.2h0l-.55,1.2Z"/><path d="M24.34,4.92s0-.07.1-.07h.28c.05,0,.08,0,.07.07L24.4,7.14a.09.09,0,0,1-.09.08H24c-.05,0-.08,0-.07-.08Z"/><path d="M26.45,7.14a.09.09,0,0,1-.09.08H26.1a.1.1,0,0,1-.1-.06l-.49-1.49-.26,1.47a.09.09,0,0,1-.09.08h-.27c-.06,0-.08,0-.07-.08l.39-2.22a.08.08,0,0,1,.09-.07h.26a.11.11,0,0,1,.1.05l.49,1.5.26-1.48a.08.08,0,0,1,.09-.07h.27c.06,0,.08,0,.07.07Z"/><path d="M26.92,7.22c-.05,0-.08,0-.07-.08l.4-2.22s0-.07.09-.07h.53a1,1,0,0,1,.65.18.73.73,0,0,1,.21.59,2.77,2.77,0,0,1,0,.39,1.72,1.72,0,0,1-.4.94,1.08,1.08,0,0,1-.79.27Zm.71-2-.28,1.58h.2A.61.61,0,0,0,28,6.65,1.34,1.34,0,0,0,28.25,6a2.23,2.23,0,0,0,0-.33.45.45,0,0,0-.11-.34.56.56,0,0,0-.35-.1Z"/><path d="M28.92,6.66a.82.82,0,0,1,0-.21l.27-1.53s0-.07.09-.07h.28c.05,0,.08,0,.07.07L29.39,6.4a1.49,1.49,0,0,0,0,.17.29.29,0,0,0,.07.21.3.3,0,0,0,.23.07A.36.36,0,0,0,30,6.74a.63.63,0,0,0,.14-.34l.26-1.48a.08.08,0,0,1,.09-.07h.28c.06,0,.08,0,.07.07l-.27,1.53a1.09,1.09,0,0,1-.28.61.9.9,0,0,1-.62.19C29.15,7.25,28.92,7.06,28.92,6.66Z"/><path d="M32,7.05a1,1,0,0,1-.64.2,1.5,1.5,0,0,1-.58-.09l-.05,0a.15.15,0,0,1,0-.06l.08-.22s.06-.07.11,0a1.3,1.3,0,0,0,.41.07.66.66,0,0,0,.32-.08.28.28,0,0,0,.13-.25.24.24,0,0,0-.07-.18,1.07,1.07,0,0,0-.24-.17,1.31,1.31,0,0,1-.33-.26A.56.56,0,0,1,31,5.57.69.69,0,0,1,31.25,5a.88.88,0,0,1,.63-.2,1.34,1.34,0,0,1,.5.08s.07.05,0,.09l-.09.22a.08.08,0,0,1-.11,0,1.13,1.13,0,0,0-.35,0c-.26,0-.4.1-.4.3a.25.25,0,0,0,.08.18,1,1,0,0,0,.23.17,1.24,1.24,0,0,1,.34.28.51.51,0,0,1,.12.35A.7.7,0,0,1,32,7.05Z"/><path d="M32.67,4.92a.08.08,0,0,1,.09-.07H34c.06,0,.08,0,.07.07l0,.25a.09.09,0,0,1-.1.08h-.42l-.33,1.89a.09.09,0,0,1-.09.08h-.28c-.06,0-.08,0-.07-.08l.33-1.89h-.42s-.07,0-.06-.08Z"/><path d="M35.08,4.85a1,1,0,0,1,.58.13.48.48,0,0,1,.19.43,1,1,0,0,1,0,.25.8.8,0,0,1-.6.71l.32.75s0,0,0,.07a.06.06,0,0,1-.06,0h-.28a.1.1,0,0,1-.1-.06l-.3-.73h-.24l-.13.71a.09.09,0,0,1-.09.08h-.28c-.06,0-.08,0-.07-.08l.39-2.22a.08.08,0,0,1,.09-.07ZM34.9,6.06a.48.48,0,0,0,.34-.1.53.53,0,0,0,.15-.31c0-.05,0-.11,0-.16a.2.2,0,0,0-.09-.19A.45.45,0,0,0,35,5.24h-.26l-.15.82Z"/><path d="M36.31,4.92a.08.08,0,0,1,.09-.07h.29c.05,0,.07,0,.07.07l-.39,2.22a.09.09,0,0,1-.1.08H36c-.05,0-.08,0-.07-.08Z"/><path d="M38.16,4.85c.06,0,.09,0,.09.07l.23,2.21a.08.08,0,0,1,0,.07l-.06,0h-.29S38,7.2,38,7.15l0-.45h-.69l-.2.45a.1.1,0,0,1-.1.07h-.3l-.06,0a.08.08,0,0,1,0-.07l1-2.21a.15.15,0,0,1,0-.06h.46ZM38,6.31l-.07-1h0l-.44,1Z"/><path d="M39.25,6.82H40c.06,0,.08,0,.07.07L40,7.14c0,.05,0,.08-.08.08H38.82s-.08,0-.07-.08l.39-2.22a.08.08,0,0,1,.09-.07h.29s.07,0,.06.07Z"/><path class="cls-3" d="M26.8,8.73c.09,0,.14,0,.14.11L27.09,11c0,.09,0,.13-.11.13h-.45c-.08,0-.12,0-.12-.1v-.28h-.49l-.1.28a.15.15,0,0,1-.15.1h-.47a.1.1,0,0,1-.08,0,.17.17,0,0,1,0-.1L26,8.84l.06-.09a.15.15,0,0,1,.1,0Zm-.38,1.43,0-.77h0l-.3.77Z"/><path class="cls-3" d="M27.39,11.11c-.09,0-.12,0-.11-.11l.38-2.16c0-.08.06-.11.13-.11h.69a1.08,1.08,0,0,1,.62.14.55.55,0,0,1,.2.48,2.46,2.46,0,0,1,0,.26,1.11,1.11,0,0,1-.32.68,1.18,1.18,0,0,1-.73.19h-.18L28,11c0,.08-.06.11-.13.11ZM28.3,9.9a.28.28,0,0,0,.2-.06.46.46,0,0,0,.09-.23.47.47,0,0,0,0-.15.17.17,0,0,0-.05-.12.3.3,0,0,0-.16,0h-.14l-.11.59Z"/><path class="cls-3" d="M30,10.5h.58c.08,0,.11,0,.1.12l-.07.38a.12.12,0,0,1-.13.11H29.38c-.09,0-.12,0-.11-.11l.38-2.16c0-.08.06-.11.13-.11h.45c.08,0,.12,0,.1.11Z"/><path class="cls-3" d="M31.29,8.84c0-.08.06-.11.13-.11h.45c.08,0,.11,0,.1.11L31.59,11a.12.12,0,0,1-.13.11H31c-.08,0-.11,0-.1-.11Z"/><path class="cls-3" d="M33.34,10.51c.09,0,.13,0,.14.07v.32a.13.13,0,0,1,0,.09l-.09,0a1.18,1.18,0,0,1-.5.11,1,1,0,0,1-.65-.19.74.74,0,0,1-.23-.61,2.69,2.69,0,0,1,0-.44,1.72,1.72,0,0,1,.4-.95,1.12,1.12,0,0,1,.8-.27,1.06,1.06,0,0,1,.5.1.11.11,0,0,1,.07.15l-.13.31a.12.12,0,0,1-.16.08.66.66,0,0,0-.25,0,.46.46,0,0,0-.36.12,1,1,0,0,0-.18.5,1.6,1.6,0,0,0,0,.32.29.29,0,0,0,.09.25.41.41,0,0,0,.28.07A.84.84,0,0,0,33.34,10.51Z"/><path class="cls-3" d="M35.33,8.73c.08,0,.13,0,.14.11L35.62,11c0,.09,0,.13-.11.13h-.46c-.07,0-.11,0-.11-.1v-.28h-.5l-.1.28a.15.15,0,0,1-.15.1h-.47a.1.1,0,0,1-.08,0,.17.17,0,0,1,0-.1l.91-2.14a.35.35,0,0,1,.06-.09.16.16,0,0,1,.1,0ZM35,10.16l0-.77h0l-.3.77Z"/><path class="cls-3" d="M35.9,11.11c-.07,0-.11,0-.09-.11l.38-2.16c0-.08.05-.11.13-.11h.62a1,1,0,0,1,.67.18.77.77,0,0,1,.22.62,2.13,2.13,0,0,1,0,.39,1.52,1.52,0,0,1-.38.92,1.17,1.17,0,0,1-.83.27Zm.88-1.79-.21,1.2h.09a.34.34,0,0,0,.29-.13,1,1,0,0,0,.16-.47,2.11,2.11,0,0,0,0-.31.3.3,0,0,0-.06-.22.29.29,0,0,0-.22-.07Z"/><path class="cls-3" d="M39.39,8.73c.09,0,.13,0,.14.11L39.68,11c0,.09,0,.13-.11.13h-.45c-.08,0-.12,0-.12-.1v-.28H38.5l-.11.28a.15.15,0,0,1-.14.1h-.47s-.07,0-.08,0a.09.09,0,0,1,0-.1l.91-2.14a.35.35,0,0,1,.06-.09s0,0,.1,0ZM39,10.16l0-.77h0l-.3.77Z"/></g></g></svg>